<svg id="visual" viewBox="0 0 900 600" width="900" height="600" xmlns="http://www.w3.org/2000/svg" xmlns:xlink="http://www.w3.org/1999/xlink" version="1.1"><rect x="0" y="0" width="900" height="600" fill="#140021"></rect><path d="M0 308L129 308L129 378L257 378L257 285L386 285L386 279L514 279L514 312L643 312L643 354L771 354L771 291L900 291L900 251L900 601L900 601L771 601L771 601L643 601L643 601L514 601L514 601L386 601L386 601L257 601L257 601L129 601L129 601L0 601Z" fill="#9900ff"></path><path d="M0 399L129 399L129 457L257 457L257 366L386 366L386 395L514 395L514 347L643 347L643 354L771 354L771 359L900 359L900 450L900 601L900 601L771 601L771 601L643 601L643 601L514 601L514 601L386 601L386 601L257 601L257 601L129 601L129 601L0 601Z" fill="#7700c6"></path><path d="M0 509L129 509L129 442L257 442L257 479L386 479L386 483L514 483L514 445L643 445L643 506L771 506L771 481L900 481L900 465L900 601L900 601L771 601L771 601L643 601L643 601L514 601L514 601L386 601L386 601L257 601L257 601L129 601L129 601L0 601Z" fill="#560090"></path></svg>