<svg xmlns="http://www.w3.org/2000/svg" xmlns:xlink="http://www.w3.org/1999/xlink" width="85" zoomAndPan="magnify" viewBox="0 0 63.75 30.000001" height="40" preserveAspectRatio="xMidYMid meet" version="1.0"><defs><g/><clipPath id="7775af37e2"><path d="M 2 3 L 62.601562 3 L 62.601562 27 L 2 27 Z M 2 3 " clip-rule="nonzero"/></clipPath><clipPath id="a9a5cab9ae"><path d="M 43 9 L 60.601562 9 L 60.601562 19 L 43 19 Z M 43 9 " clip-rule="nonzero"/></clipPath><clipPath id="66d8b6f3c4"><path d="M 0.53125 3 L 13 3 L 13 19 L 0.53125 19 Z M 0.53125 3 " clip-rule="nonzero"/></clipPath><clipPath id="67df6d5d55"><path d="M 42 8 L 60.601562 8 L 60.601562 18 L 42 18 Z M 42 8 " clip-rule="nonzero"/></clipPath><clipPath id="a11b667003"><rect x="0" width="61" y="0" height="24"/></clipPath></defs><g clip-path="url(#7775af37e2)"><g transform="matrix(1, 0, 0, 1, 2, 3)"><g clip-path="url(#a11b667003)"><g fill="#2fdfdf" fill-opacity="1"><g transform="translate(1.810623, 17.849124)"><g><path d="M 10.796875 -6.453125 C 11.179688 -6.453125 11.375 -6.289062 11.375 -5.96875 C 11.375 -5.570312 11.140625 -5.097656 10.671875 -4.546875 C 9.878906 -3.628906 8.953125 -2.738281 7.890625 -1.875 C 6.148438 -0.488281 4.597656 0.203125 3.234375 0.203125 C 2.253906 0.203125 1.453125 -0.222656 0.828125 -1.078125 C 0.179688 -1.960938 -0.140625 -3.15625 -0.140625 -4.65625 C -0.140625 -6.625 0.816406 -8.796875 2.734375 -11.171875 C 3.953125 -12.691406 5.097656 -13.722656 6.171875 -14.265625 C 6.503906 -14.429688 6.757812 -14.515625 6.9375 -14.515625 C 7.125 -14.515625 7.289062 -14.484375 7.4375 -14.421875 C 7.582031 -14.367188 7.722656 -14.289062 7.859375 -14.1875 C 8.148438 -13.9375 8.296875 -13.632812 8.296875 -13.28125 C 8.296875 -12.9375 8.195312 -12.519531 8 -12.03125 C 7.8125 -11.550781 7.53125 -11.035156 7.15625 -10.484375 C 6.375 -9.316406 5.3125 -8.203125 3.96875 -7.140625 C 3.625 -6.472656 3.453125 -5.675781 3.453125 -4.75 C 3.453125 -4.332031 3.585938 -3.9375 3.859375 -3.5625 C 4.128906 -3.1875 4.429688 -3 4.765625 -3 C 5.210938 -3 6.070312 -3.46875 7.34375 -4.40625 L 8.96875 -5.65625 C 9.632812 -6.1875 10.242188 -6.453125 10.796875 -6.453125 Z M 10.796875 -6.453125 "/></g></g></g><g fill="#2fdfdf" fill-opacity="1"><g transform="translate(10.757968, 17.849124)"><g><path d="M 12.625 -6.71875 C 12.914062 -6.71875 13.0625 -6.550781 13.0625 -6.21875 C 13.0625 -6 12.988281 -5.722656 12.84375 -5.390625 C 12.695312 -5.054688 12.484375 -4.742188 12.203125 -4.453125 C 11.921875 -4.171875 11.597656 -3.875 11.234375 -3.5625 C 10.867188 -3.25 10.441406 -2.921875 9.953125 -2.578125 C 9.472656 -2.242188 8.941406 -1.90625 8.359375 -1.5625 C 7.773438 -1.226562 7.15625 -0.929688 6.5 -0.671875 C 5.039062 -0.0664062 3.632812 0.234375 2.28125 0.234375 C 1.238281 0.234375 0.328125 -0.0351562 -0.453125 -0.578125 C -1.273438 -1.148438 -1.6875 -1.835938 -1.6875 -2.640625 C -1.6875 -3.921875 -1 -5.132812 0.375 -6.28125 C 1.550781 -7.257812 2.941406 -8.019531 4.546875 -8.5625 C 5.523438 -8.894531 6.347656 -9.0625 7.015625 -9.0625 C 7.566406 -9.0625 8.03125 -8.925781 8.40625 -8.65625 C 8.8125 -8.363281 9.015625 -7.972656 9.015625 -7.484375 C 9.015625 -6.703125 8.398438 -5.84375 7.171875 -4.90625 C 6.984375 -4.757812 6.804688 -4.632812 6.640625 -4.53125 L 6.3125 -4.3125 C 5.707031 -3.882812 4.785156 -3.40625 3.546875 -2.875 C 3.929688 -2.675781 4.285156 -2.578125 4.609375 -2.578125 C 4.941406 -2.578125 5.238281 -2.613281 5.5 -2.6875 C 5.769531 -2.769531 6.070312 -2.882812 6.40625 -3.03125 C 6.738281 -3.175781 7.097656 -3.347656 7.484375 -3.546875 C 7.867188 -3.753906 8.253906 -3.984375 8.640625 -4.234375 C 9.503906 -4.773438 10.257812 -5.328125 10.90625 -5.890625 C 11.238281 -6.203125 11.664062 -6.445312 12.1875 -6.625 C 12.351562 -6.6875 12.5 -6.71875 12.625 -6.71875 Z M 2.5625 -4.140625 L 3.0625 -4.40625 C 3.226562 -4.488281 3.375 -4.566406 3.5 -4.640625 C 4.726562 -5.347656 5.425781 -5.78125 5.59375 -5.9375 C 5.769531 -6.101562 5.859375 -6.21875 5.859375 -6.28125 C 5.859375 -6.351562 5.835938 -6.429688 5.796875 -6.515625 C 5.765625 -6.597656 5.71875 -6.671875 5.65625 -6.734375 C 5.507812 -6.910156 5.351562 -7 5.1875 -7 C 5.019531 -7 4.835938 -6.96875 4.640625 -6.90625 C 4.441406 -6.84375 4.242188 -6.757812 4.046875 -6.65625 C 3.847656 -6.550781 3.65625 -6.421875 3.46875 -6.265625 C 3.28125 -6.117188 3.117188 -5.960938 2.984375 -5.796875 C 2.660156 -5.410156 2.5 -5.078125 2.5 -4.796875 C 2.5 -4.515625 2.519531 -4.296875 2.5625 -4.140625 Z M 2.5625 -4.140625 "/></g></g></g><g fill="#2fdfdf" fill-opacity="1"><g transform="translate(21.248212, 17.849124)"><g><path d="M -0.5 -3.015625 C -0.613281 -3.015625 -0.722656 -3.039062 -0.828125 -3.09375 C -0.941406 -3.144531 -1.050781 -3.234375 -1.15625 -3.359375 C -1.363281 -3.628906 -1.46875 -3.992188 -1.46875 -4.453125 C -1.46875 -4.953125 -1.171875 -5.566406 -0.578125 -6.296875 C -0.00390625 -7.015625 0.660156 -7.628906 1.421875 -8.140625 C 2.234375 -8.703125 2.929688 -8.984375 3.515625 -8.984375 C 4.035156 -8.984375 4.382812 -8.835938 4.5625 -8.546875 L 4.6875 -8.34375 C 4.789062 -8.195312 4.890625 -8.125 4.984375 -8.125 C 5.078125 -8.125 5.226562 -8.128906 5.4375 -8.140625 L 6.734375 -8.234375 C 6.941406 -8.253906 7.101562 -8.265625 7.21875 -8.265625 C 7.332031 -8.265625 7.460938 -8.222656 7.609375 -8.140625 C 7.753906 -8.054688 7.890625 -7.945312 8.015625 -7.8125 C 8.265625 -7.507812 8.390625 -7.175781 8.390625 -6.8125 C 8.390625 -6.4375 7.972656 -5.84375 7.140625 -5.03125 L 6.53125 -4.421875 C 6.101562 -3.984375 5.890625 -3.707031 5.890625 -3.59375 C 5.890625 -3.476562 5.941406 -3.375 6.046875 -3.28125 C 6.160156 -3.195312 6.28125 -3.15625 6.40625 -3.15625 C 6.539062 -3.15625 6.6875 -3.1875 6.84375 -3.25 C 7.007812 -3.320312 7.207031 -3.425781 7.4375 -3.5625 C 7.675781 -3.695312 7.945312 -3.863281 8.25 -4.0625 C 9.082031 -4.613281 9.640625 -4.992188 9.921875 -5.203125 L 10.6875 -5.734375 C 11.207031 -6.097656 11.578125 -6.28125 11.796875 -6.28125 C 12.015625 -6.28125 12.191406 -6.234375 12.328125 -6.140625 C 12.460938 -6.046875 12.53125 -5.882812 12.53125 -5.65625 C 12.53125 -5.425781 12.410156 -5.113281 12.171875 -4.71875 C 11.941406 -4.332031 11.6875 -3.992188 11.40625 -3.703125 C 11.132812 -3.421875 10.863281 -3.15625 10.59375 -2.90625 C 10.332031 -2.664062 10.023438 -2.40625 9.671875 -2.125 C 9.316406 -1.84375 8.921875 -1.554688 8.484375 -1.265625 C 8.054688 -0.972656 7.601562 -0.710938 7.125 -0.484375 C 6.03125 0.046875 5.03125 0.3125 4.125 0.3125 C 2.789062 0.3125 1.976562 -0.03125 1.6875 -0.71875 C 1.59375 -0.925781 1.546875 -1.15625 1.546875 -1.40625 C 1.546875 -1.664062 1.59375 -1.941406 1.6875 -2.234375 C 1.78125 -2.535156 1.910156 -2.832031 2.078125 -3.125 C 2.390625 -3.695312 2.765625 -4.207031 3.203125 -4.65625 C 3.566406 -5.039062 3.75 -5.269531 3.75 -5.34375 C 3.75 -5.457031 3.679688 -5.53125 3.546875 -5.5625 C 3.421875 -5.59375 3.226562 -5.609375 2.96875 -5.609375 C 2.851562 -5.609375 2.617188 -5.445312 2.265625 -5.125 L 1.375 -4.3125 C 0.414062 -3.445312 -0.207031 -3.015625 -0.5 -3.015625 Z M -0.5 -3.015625 "/></g></g></g><g fill="#2fdfdf" fill-opacity="1"><g transform="translate(31.738457, 17.849124)"><g><path d="M 10.171875 -4.90625 C 10.171875 -4.351562 10.328125 -4.078125 10.640625 -4.078125 C 11.429688 -4.078125 12.460938 -4.613281 13.734375 -5.6875 L 13.984375 -5.890625 C 14.472656 -6.222656 14.867188 -6.390625 15.171875 -6.390625 C 15.484375 -6.390625 15.679688 -6.34375 15.765625 -6.25 C 15.847656 -6.15625 15.890625 -6.007812 15.890625 -5.8125 C 15.890625 -5.351562 15.660156 -4.875 15.203125 -4.375 C 14.523438 -3.539062 13.59375 -2.753906 12.40625 -2.015625 C 11.03125 -1.148438 9.796875 -0.71875 8.703125 -0.71875 C 7.941406 -0.71875 7.460938 -1.140625 7.265625 -1.984375 C 7.210938 -2.203125 7.175781 -2.414062 7.15625 -2.625 C 7.09375 -3.113281 7.023438 -3.382812 6.953125 -3.4375 C 6.890625 -3.488281 6.757812 -3.484375 6.5625 -3.421875 C 6.363281 -3.359375 6.128906 -3.25 5.859375 -3.09375 C 5.585938 -2.945312 5.285156 -2.769531 4.953125 -2.5625 C 3.210938 -1.40625 2.210938 -0.742188 1.953125 -0.578125 C 1.328125 -0.179688 0.90625 0.015625 0.6875 0.015625 C 0.46875 0.015625 0.25 -0.03125 0.03125 -0.125 C -0.175781 -0.21875 -0.359375 -0.332031 -0.515625 -0.46875 C -0.835938 -0.78125 -1 -1.097656 -1 -1.421875 C -1 -3.265625 -0.597656 -4.878906 0.203125 -6.265625 C 0.734375 -7.191406 1.390625 -7.835938 2.171875 -8.203125 C 2.566406 -8.390625 2.992188 -8.484375 3.453125 -8.484375 C 4.285156 -8.484375 4.703125 -8.207031 4.703125 -7.65625 C 4.703125 -7.320312 4.503906 -6.773438 4.109375 -6.015625 L 3.828125 -5.484375 C 3.640625 -5.109375 3.546875 -4.894531 3.546875 -4.84375 C 3.585938 -4.664062 3.671875 -4.578125 3.796875 -4.578125 C 3.941406 -4.578125 4.148438 -4.679688 4.421875 -4.890625 L 6.09375 -6.140625 L 6.9375 -6.71875 C 7.90625 -7.351562 8.617188 -7.671875 9.078125 -7.671875 C 9.316406 -7.671875 9.539062 -7.570312 9.75 -7.375 C 10.113281 -7.019531 10.296875 -6.710938 10.296875 -6.453125 C 10.296875 -6.367188 10.285156 -6.265625 10.265625 -6.140625 C 10.253906 -6.023438 10.242188 -5.894531 10.234375 -5.75 L 10.1875 -5.328125 C 10.175781 -5.179688 10.171875 -5.039062 10.171875 -4.90625 Z M 10.171875 -4.90625 "/></g></g></g><g clip-path="url(#a9a5cab9ae)"><g fill="#2fdfdf" fill-opacity="1"><g transform="translate(45.341888, 17.849124)"><g><path d="M 15.859375 -6.859375 C 16.054688 -6.859375 16.15625 -6.691406 16.15625 -6.359375 C 16.15625 -5.796875 15.757812 -5.066406 14.96875 -4.171875 L 14.453125 -3.640625 C 12.867188 -2.054688 11.378906 -1.003906 9.984375 -0.484375 C 9.117188 -0.160156 8.5 -0.175781 8.125 -0.53125 C 7.8125 -0.832031 7.566406 -1.3125 7.390625 -1.96875 L 7.171875 -2.765625 L 5.21875 -1.578125 L 4.09375 -0.9375 C 2.757812 -0.195312 1.757812 0.171875 1.09375 0.171875 C 0.226562 0.171875 -0.488281 -0.160156 -1.0625 -0.828125 C -1.601562 -1.453125 -1.875 -2.179688 -1.875 -3.015625 C -1.875 -3.828125 -1.550781 -4.554688 -0.90625 -5.203125 C 0.03125 -6.109375 1.5 -6.941406 3.5 -7.703125 C 5.40625 -8.421875 6.941406 -8.78125 8.109375 -8.78125 C 8.503906 -8.78125 8.703125 -8.582031 8.703125 -8.1875 C 8.703125 -7.925781 8.648438 -7.726562 8.546875 -7.59375 C 8.441406 -7.457031 8.226562 -7.316406 7.90625 -7.171875 L 6.765625 -6.6875 C 5.054688 -5.96875 3.804688 -5.226562 3.015625 -4.46875 C 2.785156 -4.25 2.671875 -4.039062 2.671875 -3.84375 C 2.671875 -3.644531 2.832031 -3.546875 3.15625 -3.546875 C 3.476562 -3.546875 4.21875 -3.882812 5.375 -4.5625 L 6.125 -5.015625 C 7.300781 -5.722656 8.285156 -6.078125 9.078125 -6.078125 C 9.742188 -6.078125 10.1875 -5.78125 10.40625 -5.1875 C 10.46875 -5.03125 10.519531 -4.867188 10.5625 -4.703125 C 10.613281 -4.546875 10.664062 -4.40625 10.71875 -4.28125 C 10.820312 -3.976562 10.914062 -3.828125 11 -3.828125 C 11.09375 -3.828125 11.222656 -3.867188 11.390625 -3.953125 C 11.554688 -4.046875 11.738281 -4.160156 11.9375 -4.296875 C 12.132812 -4.429688 12.335938 -4.582031 12.546875 -4.75 L 13.65625 -5.640625 C 14.632812 -6.453125 15.367188 -6.859375 15.859375 -6.859375 Z M 15.859375 -6.859375 "/></g></g></g></g><g clip-path="url(#66d8b6f3c4)"><g fill="#2fdfdf" fill-opacity="1"><g transform="translate(1.002662, 17.721155)"><g><path d="M 10.792969 -6.53125 C 11.007812 -6.53125 11.171875 -6.484375 11.285156 -6.390625 C 11.402344 -6.292969 11.464844 -6.152344 11.464844 -5.960938 C 11.464844 -5.542969 11.21875 -5.054688 10.730469 -4.488281 C 9.941406 -3.574219 9.011719 -2.679688 7.941406 -1.8125 C 6.191406 -0.410156 4.625 0.289062 3.242188 0.289062 C 2.230469 0.289062 1.40625 -0.148438 0.761719 -1.023438 C 0.0976562 -1.929688 -0.234375 -3.140625 -0.234375 -4.65625 C -0.234375 -6.644531 0.730469 -8.832031 2.660156 -11.230469 C 3.886719 -12.753906 5.042969 -13.792969 6.132812 -14.339844 C 6.480469 -14.515625 6.75 -14.605469 6.941406 -14.605469 C 7.132812 -14.605469 7.308594 -14.574219 7.46875 -14.511719 C 7.625 -14.449219 7.773438 -14.363281 7.90625 -14.253906 C 8.226562 -13.988281 8.386719 -13.664062 8.386719 -13.285156 C 8.386719 -12.917969 8.285156 -12.488281 8.089844 -11.996094 C 7.890625 -11.507812 7.605469 -10.984375 7.230469 -10.433594 C 6.441406 -9.261719 5.371094 -8.140625 4.027344 -7.070312 L 3.972656 -7.140625 L 4.050781 -7.097656 C 3.707031 -6.449219 3.539062 -5.664062 3.539062 -4.746094 C 3.539062 -4.347656 3.667969 -3.96875 3.921875 -3.613281 C 4.179688 -3.265625 4.457031 -3.089844 4.757812 -3.089844 C 5.1875 -3.089844 6.03125 -3.550781 7.289062 -4.472656 L 7.339844 -4.402344 L 7.285156 -4.46875 L 8.910156 -5.722656 C 9.589844 -6.261719 10.21875 -6.53125 10.792969 -6.53125 Z M 10.792969 -6.359375 C 10.257812 -6.359375 9.667969 -6.097656 9.019531 -5.582031 L 7.394531 -4.332031 L 7.390625 -4.328125 C 6.105469 -3.386719 5.226562 -2.914062 4.757812 -2.914062 C 4.398438 -2.914062 4.074219 -3.113281 3.78125 -3.507812 C 3.503906 -3.894531 3.363281 -4.308594 3.363281 -4.746094 C 3.363281 -5.691406 3.539062 -6.503906 3.894531 -7.179688 L 3.902344 -7.195312 L 3.917969 -7.207031 C 5.25 -8.265625 6.304688 -9.375 7.085938 -10.53125 C 7.453125 -11.074219 7.734375 -11.582031 7.925781 -12.0625 C 8.117188 -12.535156 8.210938 -12.941406 8.210938 -13.285156 C 8.210938 -13.609375 8.074219 -13.886719 7.796875 -14.121094 C 7.675781 -14.21875 7.546875 -14.292969 7.40625 -14.347656 C 7.265625 -14.402344 7.113281 -14.429688 6.941406 -14.429688 C 6.777344 -14.429688 6.535156 -14.347656 6.210938 -14.183594 C 5.144531 -13.644531 4.007812 -12.625 2.796875 -11.121094 C 0.894531 -8.757812 -0.0585938 -6.601562 -0.0585938 -4.65625 C -0.0585938 -3.179688 0.261719 -2.003906 0.902344 -1.128906 C 1.511719 -0.300781 2.289062 0.113281 3.242188 0.113281 C 4.582031 0.113281 6.113281 -0.574219 7.832031 -1.949219 C 8.894531 -2.808594 9.816406 -3.695312 10.597656 -4.605469 C 11.058594 -5.136719 11.289062 -5.585938 11.289062 -5.960938 C 11.289062 -6.09375 11.25 -6.195312 11.171875 -6.257812 C 11.09375 -6.324219 10.964844 -6.359375 10.792969 -6.359375 Z M 10.792969 -6.359375 "/></g></g></g></g><g fill="#2fdfdf" fill-opacity="1"><g transform="translate(9.950007, 17.721155)"><g><path d="M 12.625 -6.796875 C 12.796875 -6.796875 12.929688 -6.746094 13.019531 -6.644531 C 13.109375 -6.546875 13.152344 -6.402344 13.152344 -6.21875 C 13.152344 -5.984375 13.074219 -5.699219 12.921875 -5.355469 C 12.765625 -5.015625 12.546875 -4.695312 12.261719 -4.398438 C 11.976562 -4.109375 11.65625 -3.804688 11.292969 -3.492188 C 10.925781 -3.183594 10.5 -2.855469 10.015625 -2.511719 C 9.53125 -2.167969 8.992188 -1.832031 8.40625 -1.496094 C 7.820312 -1.15625 7.195312 -0.855469 6.535156 -0.585938 C 5.066406 0.015625 3.648438 0.316406 2.273438 0.316406 C 1.214844 0.316406 0.289062 0.0390625 -0.507812 -0.511719 C -1.347656 -1.097656 -1.765625 -1.808594 -1.765625 -2.648438 C -1.765625 -3.945312 -1.074219 -5.175781 0.316406 -6.339844 C 1.507812 -7.332031 2.90625 -8.101562 4.519531 -8.648438 C 5.5 -8.976562 6.335938 -9.144531 7.019531 -9.144531 C 7.585938 -9.144531 8.066406 -9.003906 8.460938 -8.726562 C 8.886719 -8.417969 9.097656 -8 9.097656 -7.476562 C 9.097656 -6.675781 8.476562 -5.796875 7.230469 -4.84375 C 7.03125 -4.6875 6.855469 -4.558594 6.695312 -4.453125 L 6.367188 -4.234375 L 6.316406 -4.308594 L 6.367188 -4.238281 C 5.753906 -3.808594 4.824219 -3.328125 3.578125 -2.796875 L 3.542969 -2.875 L 3.582031 -2.953125 C 3.953125 -2.757812 4.296875 -2.664062 4.613281 -2.664062 C 4.9375 -2.664062 5.226562 -2.699219 5.484375 -2.777344 C 5.746094 -2.855469 6.042969 -2.964844 6.375 -3.113281 C 6.707031 -3.257812 7.0625 -3.429688 7.441406 -3.632812 C 7.820312 -3.835938 8.203125 -4.058594 8.589844 -4.300781 C 9.457031 -4.839844 10.207031 -5.390625 10.84375 -5.953125 L 10.902344 -5.886719 L 10.839844 -5.953125 C 11.183594 -6.273438 11.621094 -6.523438 12.148438 -6.710938 L 12.152344 -6.710938 C 12.332031 -6.769531 12.488281 -6.796875 12.625 -6.796875 Z M 12.625 -6.621094 C 12.507812 -6.621094 12.367188 -6.597656 12.207031 -6.542969 L 12.179688 -6.628906 L 12.207031 -6.546875 C 11.703125 -6.367188 11.285156 -6.125 10.960938 -5.824219 L 10.957031 -5.824219 C 10.316406 -5.253906 9.558594 -4.695312 8.683594 -4.152344 C 8.292969 -3.910156 7.90625 -3.683594 7.523438 -3.480469 C 7.140625 -3.273438 6.78125 -3.097656 6.445312 -2.949219 C 6.105469 -2.804688 5.804688 -2.6875 5.535156 -2.609375 C 5.261719 -2.527344 4.957031 -2.488281 4.613281 -2.488281 C 4.269531 -2.488281 3.898438 -2.589844 3.5 -2.796875 L 3.339844 -2.882812 L 3.507812 -2.957031 C 4.742188 -3.484375 5.664062 -3.957031 6.265625 -4.382812 L 6.269531 -4.382812 L 6.597656 -4.601562 C 6.753906 -4.703125 6.929688 -4.832031 7.121094 -4.980469 C 8.324219 -5.902344 8.921875 -6.734375 8.921875 -7.476562 C 8.921875 -7.941406 8.734375 -8.308594 8.359375 -8.582031 C 7.996094 -8.839844 7.550781 -8.96875 7.019531 -8.96875 C 6.355469 -8.96875 5.539062 -8.804688 4.574219 -8.480469 C 2.984375 -7.941406 1.601562 -7.183594 0.429688 -6.203125 C -0.917969 -5.078125 -1.59375 -3.890625 -1.59375 -2.648438 C -1.59375 -1.867188 -1.195312 -1.203125 -0.40625 -0.65625 C 0.359375 -0.125 1.25 0.140625 2.273438 0.140625 C 3.625 0.140625 5.023438 -0.15625 6.46875 -0.746094 C 7.121094 -1.015625 7.738281 -1.3125 8.320312 -1.644531 C 8.902344 -1.980469 9.433594 -2.316406 9.914062 -2.65625 C 10.394531 -2.996094 10.816406 -3.320312 11.175781 -3.628906 C 11.535156 -3.9375 11.855469 -4.234375 12.132812 -4.519531 C 12.40625 -4.800781 12.617188 -5.105469 12.761719 -5.425781 C 12.90625 -5.746094 12.976562 -6.011719 12.976562 -6.21875 C 12.976562 -6.359375 12.949219 -6.464844 12.890625 -6.527344 C 12.832031 -6.589844 12.746094 -6.621094 12.625 -6.621094 Z M 2.515625 -4.222656 L 3.019531 -4.480469 C 3.179688 -4.5625 3.328125 -4.640625 3.453125 -4.714844 C 4.675781 -5.417969 5.371094 -5.847656 5.535156 -6.007812 C 5.617188 -6.085938 5.679688 -6.152344 5.71875 -6.203125 C 5.75 -6.246094 5.765625 -6.273438 5.765625 -6.285156 C 5.765625 -6.335938 5.75 -6.402344 5.714844 -6.476562 C 5.683594 -6.550781 5.640625 -6.617188 5.585938 -6.679688 C 5.457031 -6.832031 5.324219 -6.90625 5.1875 -6.90625 C 5.03125 -6.90625 4.859375 -6.875 4.667969 -6.816406 C 4.476562 -6.757812 4.28125 -6.675781 4.085938 -6.574219 C 3.890625 -6.46875 3.699219 -6.34375 3.519531 -6.199219 C 3.339844 -6.054688 3.179688 -5.898438 3.042969 -5.734375 C 2.734375 -5.363281 2.578125 -5.050781 2.578125 -4.792969 C 2.578125 -4.519531 2.601562 -4.3125 2.640625 -4.167969 L 2.554688 -4.144531 Z M 2.597656 -4.066406 L 2.5 -4.019531 L 2.472656 -4.121094 C 2.425781 -4.28125 2.40625 -4.503906 2.40625 -4.792969 C 2.40625 -5.09375 2.574219 -5.445312 2.910156 -5.84375 C 3.050781 -6.019531 3.21875 -6.183594 3.410156 -6.335938 C 3.601562 -6.488281 3.796875 -6.621094 4.003906 -6.726562 C 4.210938 -6.835938 4.414062 -6.921875 4.617188 -6.984375 C 4.824219 -7.050781 5.011719 -7.082031 5.1875 -7.082031 C 5.375 -7.082031 5.554688 -6.984375 5.71875 -6.792969 L 5.652344 -6.738281 L 5.714844 -6.796875 C 5.785156 -6.722656 5.835938 -6.636719 5.878906 -6.542969 C 5.917969 -6.449219 5.941406 -6.363281 5.941406 -6.285156 C 5.941406 -6.195312 5.84375 -6.0625 5.65625 -5.878906 C 5.480469 -5.710938 4.777344 -5.269531 3.539062 -4.5625 C 3.410156 -4.488281 3.265625 -4.410156 3.097656 -4.324219 Z M 2.597656 -4.066406 "/></g></g></g><g fill="#2fdfdf" fill-opacity="1"><g transform="translate(20.440252, 17.721155)"><g><path d="M -0.492188 -2.925781 C -0.621094 -2.925781 -0.75 -2.957031 -0.875 -3.015625 C -1 -3.078125 -1.113281 -3.171875 -1.21875 -3.304688 C -1.445312 -3.589844 -1.558594 -3.972656 -1.558594 -4.457031 C -1.558594 -4.96875 -1.257812 -5.601562 -0.652344 -6.355469 C -0.0742188 -7.074219 0.597656 -7.695312 1.367188 -8.214844 C 2.195312 -8.785156 2.914062 -9.070312 3.515625 -9.070312 C 4.066406 -9.070312 4.4375 -8.910156 4.640625 -8.59375 L 4.765625 -8.390625 C 4.847656 -8.265625 4.917969 -8.203125 4.984375 -8.203125 C 5.078125 -8.203125 5.230469 -8.214844 5.433594 -8.230469 L 6.730469 -8.324219 C 6.933594 -8.339844 7.09375 -8.351562 7.210938 -8.351562 C 7.34375 -8.351562 7.488281 -8.304688 7.652344 -8.214844 C 7.808594 -8.128906 7.949219 -8.015625 8.074219 -7.871094 C 8.34375 -7.550781 8.476562 -7.195312 8.476562 -6.8125 C 8.476562 -6.410156 8.050781 -5.792969 7.199219 -4.96875 L 6.597656 -4.367188 C 6.386719 -4.148438 6.226562 -3.96875 6.121094 -3.832031 C 6.023438 -3.707031 5.976562 -3.625 5.976562 -3.589844 C 5.976562 -3.5 6.019531 -3.421875 6.109375 -3.351562 C 6.203125 -3.273438 6.300781 -3.238281 6.410156 -3.238281 C 6.523438 -3.238281 6.65625 -3.269531 6.808594 -3.335938 C 6.964844 -3.402344 7.164062 -3.503906 7.398438 -3.640625 C 7.632812 -3.777344 7.902344 -3.941406 8.207031 -4.136719 C 9.039062 -4.683594 9.59375 -5.058594 9.871094 -5.265625 L 10.632812 -5.804688 C 11.164062 -6.179688 11.546875 -6.367188 11.785156 -6.367188 C 12.023438 -6.367188 12.21875 -6.316406 12.375 -6.210938 C 12.539062 -6.101562 12.621094 -5.914062 12.621094 -5.652344 C 12.621094 -5.402344 12.5 -5.078125 12.253906 -4.675781 C 12.011719 -4.28125 11.75 -3.9375 11.46875 -3.644531 C 11.191406 -3.359375 10.921875 -3.09375 10.660156 -2.847656 C 10.394531 -2.601562 10.085938 -2.339844 9.726562 -2.054688 C 9.371094 -1.769531 8.972656 -1.480469 8.539062 -1.191406 C 8.105469 -0.898438 7.644531 -0.636719 7.160156 -0.40625 C 6.058594 0.128906 5.042969 0.398438 4.117188 0.398438 C 2.746094 0.398438 1.90625 0.0351562 1.597656 -0.6875 C 1.503906 -0.90625 1.457031 -1.148438 1.457031 -1.414062 C 1.457031 -1.679688 1.503906 -1.964844 1.605469 -2.269531 C 1.703125 -2.570312 1.835938 -2.867188 1.996094 -3.164062 C 2.316406 -3.75 2.695312 -4.265625 3.132812 -4.71875 C 3.3125 -4.90625 3.449219 -5.058594 3.539062 -5.167969 C 3.582031 -5.222656 3.613281 -5.269531 3.632812 -5.300781 C 3.644531 -5.316406 3.648438 -5.328125 3.652344 -5.339844 C 3.65625 -5.34375 3.65625 -5.34375 3.65625 -5.347656 C 3.65625 -5.34375 3.65625 -5.34375 3.65625 -5.339844 C 3.65625 -5.375 3.648438 -5.402344 3.628906 -5.425781 C 3.609375 -5.445312 3.574219 -5.464844 3.527344 -5.472656 C 3.402344 -5.503906 3.214844 -5.519531 2.96875 -5.519531 C 2.929688 -5.519531 2.859375 -5.484375 2.757812 -5.414062 C 2.644531 -5.335938 2.5 -5.222656 2.320312 -5.066406 L 1.429688 -4.246094 C 0.460938 -3.363281 -0.179688 -2.925781 -0.492188 -2.925781 Z M -0.492188 -3.101562 C -0.367188 -3.101562 -0.152344 -3.203125 0.140625 -3.410156 C 0.449219 -3.621094 0.839844 -3.945312 1.308594 -4.375 L 2.207031 -5.195312 C 2.582031 -5.527344 2.835938 -5.691406 2.96875 -5.691406 C 3.230469 -5.691406 3.429688 -5.675781 3.566406 -5.644531 C 3.648438 -5.625 3.714844 -5.589844 3.757812 -5.539062 C 3.808594 -5.488281 3.832031 -5.421875 3.832031 -5.339844 C 3.832031 -5.285156 3.777344 -5.191406 3.675781 -5.058594 C 3.582031 -4.945312 3.441406 -4.789062 3.257812 -4.59375 C 2.832031 -4.15625 2.460938 -3.652344 2.148438 -3.082031 C 1.992188 -2.792969 1.867188 -2.503906 1.773438 -2.214844 C 1.679688 -1.925781 1.628906 -1.660156 1.628906 -1.414062 C 1.628906 -1.171875 1.675781 -0.953125 1.761719 -0.753906 C 2.039062 -0.101562 2.824219 0.222656 4.117188 0.222656 C 5.015625 0.222656 6.003906 -0.0390625 7.082031 -0.5625 C 7.558594 -0.792969 8.011719 -1.050781 8.441406 -1.335938 C 8.871094 -1.625 9.265625 -1.910156 9.617188 -2.191406 C 9.972656 -2.472656 10.28125 -2.734375 10.539062 -2.976562 C 10.800781 -3.21875 11.070312 -3.484375 11.34375 -3.769531 C 11.617188 -4.050781 11.871094 -4.382812 12.105469 -4.765625 C 12.332031 -5.140625 12.449219 -5.4375 12.449219 -5.652344 C 12.449219 -5.851562 12.390625 -5.988281 12.277344 -6.066406 C 12.152344 -6.152344 11.988281 -6.195312 11.785156 -6.195312 C 11.585938 -6.195312 11.234375 -6.015625 10.734375 -5.660156 L 9.976562 -5.125 C 9.695312 -4.917969 9.136719 -4.539062 8.300781 -3.988281 C 7.996094 -3.792969 7.722656 -3.625 7.484375 -3.488281 C 7.246094 -3.351562 7.042969 -3.246094 6.878906 -3.175781 C 6.707031 -3.097656 6.550781 -3.0625 6.410156 -3.0625 C 6.261719 -3.0625 6.125 -3.113281 5.996094 -3.214844 C 5.867188 -3.320312 5.800781 -3.445312 5.800781 -3.589844 C 5.800781 -3.664062 5.859375 -3.78125 5.980469 -3.9375 C 6.089844 -4.082031 6.257812 -4.265625 6.476562 -4.488281 L 7.078125 -5.09375 C 7.894531 -5.886719 8.300781 -6.457031 8.300781 -6.8125 C 8.300781 -7.15625 8.183594 -7.46875 7.941406 -7.757812 C 7.832031 -7.882812 7.707031 -7.984375 7.566406 -8.0625 C 7.429688 -8.136719 7.3125 -8.175781 7.210938 -8.175781 C 7.097656 -8.175781 6.941406 -8.164062 6.742188 -8.148438 L 5.449219 -8.054688 C 5.238281 -8.039062 5.085938 -8.027344 4.984375 -8.027344 C 4.855469 -8.027344 4.734375 -8.117188 4.617188 -8.296875 L 4.492188 -8.5 C 4.324219 -8.761719 4 -8.894531 3.515625 -8.894531 C 2.949219 -8.894531 2.265625 -8.621094 1.464844 -8.070312 C 0.710938 -7.558594 0.0507812 -6.949219 -0.515625 -6.246094 C -1.09375 -5.523438 -1.382812 -4.929688 -1.382812 -4.457031 C -1.382812 -4.011719 -1.28125 -3.667969 -1.082031 -3.414062 C -0.992188 -3.304688 -0.898438 -3.222656 -0.796875 -3.171875 C -0.695312 -3.125 -0.59375 -3.101562 -0.492188 -3.101562 Z M -0.492188 -3.101562 "/></g></g></g><g fill="#2fdfdf" fill-opacity="1"><g transform="translate(30.930496, 17.721155)"><g><path d="M 10.25 -4.902344 C 10.25 -4.40625 10.382812 -4.160156 10.644531 -4.160156 C 11.414062 -4.160156 12.425781 -4.6875 13.675781 -5.746094 L 13.925781 -5.957031 L 13.929688 -5.960938 C 14.4375 -6.300781 14.851562 -6.46875 15.179688 -6.46875 C 15.511719 -6.46875 15.726562 -6.414062 15.828125 -6.304688 C 15.925781 -6.195312 15.972656 -6.03125 15.972656 -5.804688 C 15.972656 -5.332031 15.738281 -4.835938 15.265625 -4.3125 L 15.199219 -4.375 L 15.269531 -4.316406 C 14.582031 -3.480469 13.640625 -2.691406 12.445312 -1.941406 C 11.054688 -1.070312 9.808594 -0.632812 8.699219 -0.632812 C 8.296875 -0.632812 7.96875 -0.746094 7.714844 -0.972656 C 7.460938 -1.195312 7.285156 -1.53125 7.183594 -1.96875 C 7.125 -2.191406 7.085938 -2.40625 7.0625 -2.609375 C 7.03125 -2.851562 7 -3.035156 6.96875 -3.167969 C 6.941406 -3.285156 6.917969 -3.351562 6.902344 -3.363281 C 6.886719 -3.378906 6.855469 -3.382812 6.808594 -3.382812 C 6.753906 -3.378906 6.675781 -3.363281 6.585938 -3.335938 C 6.394531 -3.273438 6.164062 -3.167969 5.898438 -3.023438 C 5.628906 -2.875 5.332031 -2.695312 5.003906 -2.484375 C 3.265625 -1.328125 2.261719 -0.664062 2 -0.5 C 1.359375 -0.101562 0.921875 0.0976562 0.683594 0.0976562 C 0.453125 0.0976562 0.226562 0.046875 0.0078125 -0.046875 C -0.210938 -0.140625 -0.402344 -0.261719 -0.570312 -0.410156 C -0.917969 -0.738281 -1.09375 -1.078125 -1.09375 -1.425781 C -1.09375 -3.285156 -0.6875 -4.910156 0.125 -6.308594 C 0.667969 -7.253906 1.339844 -7.910156 2.136719 -8.277344 C 2.542969 -8.472656 2.980469 -8.570312 3.449219 -8.570312 C 3.886719 -8.570312 4.214844 -8.496094 4.4375 -8.347656 C 4.671875 -8.195312 4.789062 -7.964844 4.789062 -7.660156 C 4.789062 -7.3125 4.589844 -6.75 4.1875 -5.976562 L 3.914062 -5.4375 C 3.816406 -5.253906 3.742188 -5.109375 3.699219 -5.007812 C 3.675781 -4.957031 3.660156 -4.917969 3.648438 -4.886719 C 3.644531 -4.875 3.640625 -4.863281 3.640625 -4.855469 C 3.640625 -4.851562 3.640625 -4.851562 3.640625 -4.851562 C 3.640625 -4.851562 3.640625 -4.855469 3.636719 -4.859375 L 3.550781 -4.847656 L 3.636719 -4.863281 C 3.664062 -4.730469 3.71875 -4.660156 3.796875 -4.660156 C 3.917969 -4.660156 4.109375 -4.757812 4.367188 -4.953125 L 6.046875 -6.207031 L 6.890625 -6.792969 C 7.871094 -7.433594 8.601562 -7.757812 9.074219 -7.757812 C 9.34375 -7.757812 9.585938 -7.652344 9.800781 -7.441406 C 10.191406 -7.070312 10.386719 -6.742188 10.386719 -6.453125 C 10.386719 -6.367188 10.378906 -6.257812 10.363281 -6.132812 L 10.3125 -5.742188 L 10.226562 -5.75 L 10.3125 -5.746094 L 10.277344 -5.3125 C 10.257812 -5.167969 10.25 -5.03125 10.25 -4.902344 Z M 10.074219 -4.902344 C 10.074219 -5.039062 10.082031 -5.183594 10.101562 -5.332031 L 10.1875 -5.324219 L 10.101562 -5.328125 L 10.136719 -5.761719 L 10.1875 -6.15625 C 10.203125 -6.273438 10.210938 -6.375 10.210938 -6.453125 C 10.210938 -6.691406 10.035156 -6.976562 9.679688 -7.3125 C 9.496094 -7.492188 9.292969 -7.582031 9.074219 -7.582031 C 8.636719 -7.582031 7.941406 -7.269531 6.988281 -6.644531 L 6.9375 -6.71875 L 6.988281 -6.648438 L 6.148438 -6.0625 L 6.097656 -6.136719 L 6.152344 -6.066406 L 4.472656 -4.8125 C 4.183594 -4.59375 3.957031 -4.484375 3.796875 -4.484375 C 3.621094 -4.484375 3.511719 -4.601562 3.464844 -4.832031 L 3.464844 -4.835938 C 3.460938 -4.878906 3.484375 -4.957031 3.539062 -5.078125 C 3.585938 -5.183594 3.660156 -5.332031 3.757812 -5.515625 L 4.03125 -6.058594 C 4.417969 -6.804688 4.613281 -7.339844 4.613281 -7.660156 C 4.613281 -7.902344 4.523438 -8.082031 4.339844 -8.203125 C 4.148438 -8.332031 3.851562 -8.394531 3.449219 -8.394531 C 3.007812 -8.394531 2.59375 -8.300781 2.210938 -8.117188 C 1.449219 -7.765625 0.804688 -7.132812 0.277344 -6.21875 C -0.519531 -4.851562 -0.917969 -3.253906 -0.917969 -1.425781 C -0.917969 -1.125 -0.761719 -0.832031 -0.449219 -0.539062 L -0.511719 -0.476562 L -0.453125 -0.539062 C -0.300781 -0.40625 -0.125 -0.296875 0.0742188 -0.207031 C 0.273438 -0.121094 0.476562 -0.078125 0.683594 -0.078125 C 0.886719 -0.078125 1.292969 -0.269531 1.90625 -0.648438 C 2.167969 -0.8125 3.167969 -1.472656 4.910156 -2.628906 C 5.238281 -2.84375 5.542969 -3.027344 5.8125 -3.175781 C 6.089844 -3.328125 6.328125 -3.4375 6.53125 -3.503906 C 6.761719 -3.574219 6.921875 -3.574219 7.011719 -3.5 C 7.0625 -3.460938 7.105469 -3.363281 7.140625 -3.207031 C 7.171875 -3.070312 7.203125 -2.878906 7.234375 -2.628906 C 7.257812 -2.433594 7.296875 -2.226562 7.351562 -2.011719 C 7.445312 -1.605469 7.605469 -1.304688 7.828125 -1.105469 C 8.050781 -0.90625 8.34375 -0.808594 8.699219 -0.808594 C 9.773438 -0.808594 10.988281 -1.238281 12.351562 -2.09375 C 13.53125 -2.828125 14.457031 -3.609375 15.132812 -4.429688 L 15.136719 -4.433594 C 15.578125 -4.921875 15.796875 -5.378906 15.796875 -5.804688 C 15.796875 -5.984375 15.765625 -6.113281 15.695312 -6.1875 C 15.632812 -6.257812 15.460938 -6.292969 15.179688 -6.292969 C 14.886719 -6.292969 14.503906 -6.132812 14.027344 -5.816406 L 13.976562 -5.886719 L 14.035156 -5.820312 L 13.789062 -5.613281 C 12.503906 -4.527344 11.457031 -3.984375 10.644531 -3.984375 C 10.449219 -3.984375 10.304688 -4.066406 10.207031 -4.234375 C 10.117188 -4.386719 10.074219 -4.609375 10.074219 -4.902344 Z M 10.074219 -4.902344 "/></g></g></g><g clip-path="url(#67df6d5d55)"><g fill="#2fdfdf" fill-opacity="1"><g transform="translate(44.533928, 17.721155)"><g><path d="M 15.859375 -6.945312 C 15.988281 -6.945312 16.085938 -6.886719 16.152344 -6.777344 C 16.210938 -6.683594 16.238281 -6.542969 16.238281 -6.363281 C 16.238281 -5.773438 15.835938 -5.023438 15.03125 -4.105469 L 15.027344 -4.101562 L 14.503906 -3.570312 C 12.921875 -1.988281 11.425781 -0.929688 10.019531 -0.402344 C 9.121094 -0.0664062 8.46875 -0.0859375 8.066406 -0.464844 C 7.742188 -0.777344 7.488281 -1.269531 7.300781 -1.949219 L 7.082031 -2.742188 L 7.167969 -2.765625 L 7.210938 -2.691406 L 5.265625 -1.496094 L 4.140625 -0.855469 C 2.789062 -0.117188 1.769531 0.253906 1.085938 0.253906 C 0.203125 0.253906 -0.535156 -0.0898438 -1.125 -0.773438 C -1.6875 -1.417969 -1.96875 -2.164062 -1.96875 -3.011719 C -1.96875 -3.851562 -1.632812 -4.601562 -0.964844 -5.257812 C -0.0234375 -6.179688 1.453125 -7.023438 3.476562 -7.789062 C 5.382812 -8.503906 6.929688 -8.859375 8.105469 -8.859375 C 8.328125 -8.859375 8.496094 -8.804688 8.613281 -8.691406 C 8.730469 -8.574219 8.789062 -8.410156 8.789062 -8.1875 C 8.789062 -7.902344 8.730469 -7.683594 8.613281 -7.53125 C 8.503906 -7.386719 8.277344 -7.242188 7.941406 -7.09375 L 6.789062 -6.601562 C 5.097656 -5.894531 3.855469 -5.160156 3.074219 -4.402344 C 2.867188 -4.207031 2.761719 -4.019531 2.761719 -3.84375 C 2.761719 -3.777344 2.789062 -3.726562 2.84375 -3.691406 C 2.910156 -3.652344 3.015625 -3.628906 3.160156 -3.628906 C 3.460938 -3.628906 4.179688 -3.964844 5.324219 -4.640625 L 6.082031 -5.085938 C 7.269531 -5.800781 8.265625 -6.160156 9.074219 -6.160156 C 9.785156 -6.160156 10.257812 -5.84375 10.488281 -5.214844 L 10.492188 -5.214844 C 10.546875 -5.054688 10.597656 -4.894531 10.648438 -4.730469 C 10.695312 -4.574219 10.742188 -4.429688 10.789062 -4.304688 C 10.84375 -4.160156 10.894531 -4.054688 10.9375 -3.984375 C 10.957031 -3.957031 10.976562 -3.933594 10.992188 -3.921875 C 10.996094 -3.917969 11 -3.914062 11.003906 -3.914062 C 11.078125 -3.914062 11.191406 -3.953125 11.34375 -4.035156 C 11.503906 -4.121094 11.683594 -4.234375 11.878906 -4.367188 C 12.074219 -4.503906 12.277344 -4.652344 12.492188 -4.816406 L 13.59375 -5.703125 C 14.589844 -6.53125 15.34375 -6.945312 15.859375 -6.945312 Z M 15.859375 -6.769531 C 15.386719 -6.769531 14.667969 -6.367188 13.703125 -5.566406 L 12.597656 -4.679688 C 12.382812 -4.511719 12.175781 -4.359375 11.976562 -4.222656 C 11.777344 -4.085938 11.59375 -3.96875 11.425781 -3.878906 C 11.25 -3.785156 11.109375 -3.738281 11.003906 -3.738281 C 10.929688 -3.738281 10.859375 -3.789062 10.792969 -3.890625 C 10.738281 -3.96875 10.683594 -4.085938 10.628906 -4.242188 C 10.578125 -4.371094 10.527344 -4.519531 10.480469 -4.679688 C 10.429688 -4.839844 10.378906 -5 10.324219 -5.15625 L 10.40625 -5.1875 L 10.324219 -5.15625 C 10.121094 -5.707031 9.703125 -5.984375 9.074219 -5.984375 C 8.300781 -5.984375 7.332031 -5.632812 6.171875 -4.9375 L 5.414062 -4.488281 C 4.242188 -3.800781 3.492188 -3.453125 3.160156 -3.453125 C 2.980469 -3.453125 2.84375 -3.484375 2.75 -3.542969 C 2.640625 -3.609375 2.585938 -3.710938 2.585938 -3.84375 C 2.585938 -4.070312 2.707031 -4.296875 2.953125 -4.527344 C 3.75 -5.300781 5.007812 -6.046875 6.722656 -6.761719 L 7.871094 -7.257812 C 8.179688 -7.390625 8.382812 -7.519531 8.476562 -7.640625 C 8.566406 -7.757812 8.613281 -7.941406 8.613281 -8.1875 C 8.613281 -8.359375 8.570312 -8.484375 8.492188 -8.566406 C 8.410156 -8.644531 8.28125 -8.6875 8.105469 -8.6875 C 6.949219 -8.6875 5.425781 -8.332031 3.535156 -7.625 C 1.539062 -6.867188 0.078125 -6.035156 -0.84375 -5.132812 C -1.476562 -4.511719 -1.792969 -3.804688 -1.792969 -3.011719 C -1.792969 -2.207031 -1.527344 -1.5 -0.992188 -0.886719 C -0.4375 -0.246094 0.253906 0.078125 1.085938 0.078125 C 1.742188 0.078125 2.730469 -0.285156 4.054688 -1.007812 L 5.179688 -1.644531 L 5.222656 -1.570312 L 5.175781 -1.644531 L 7.21875 -2.902344 L 7.46875 -1.996094 C 7.648438 -1.347656 7.886719 -0.878906 8.183594 -0.59375 C 8.535156 -0.265625 9.125 -0.257812 9.957031 -0.566406 C 11.339844 -1.085938 12.8125 -2.128906 14.378906 -3.695312 L 14.902344 -4.222656 L 14.964844 -4.164062 L 14.898438 -4.222656 C 15.675781 -5.105469 16.0625 -5.820312 16.0625 -6.363281 C 16.0625 -6.632812 15.996094 -6.769531 15.859375 -6.769531 Z M 15.859375 -6.769531 "/></g></g></g></g></g></g></g></svg>