<svg xmlns="http://www.w3.org/2000/svg" xmlns:xlink="http://www.w3.org/1999/xlink" width="500" zoomAndPan="magnify" viewBox="0 0 375 135.000003" height="180" preserveAspectRatio="xMidYMid meet" version="1.0"><defs><g/><clipPath id="e8428c182a"><path d="M 304 39 L 373.621094 39 L 373.621094 63 L 304 63 Z M 304 39 " clip-rule="nonzero"/></clipPath><clipPath id="5c74a84e10"><path d="M 234.464844 38 L 305 38 L 305 63 L 234.464844 63 Z M 234.464844 38 " clip-rule="nonzero"/></clipPath><clipPath id="41b5696f78"><path d="M 234.464844 53 L 305 53 L 305 101.265625 L 234.464844 101.265625 Z M 234.464844 53 " clip-rule="nonzero"/></clipPath><clipPath id="88e6e6ed9f"><path d="M 304 53 L 373.621094 53 L 373.621094 101.265625 L 304 101.265625 Z M 304 53 " clip-rule="nonzero"/></clipPath><clipPath id="c7e6e447b8"><path d="M 305 24.585938 L 360 24.585938 L 360 54 L 305 54 Z M 305 24.585938 " clip-rule="nonzero"/></clipPath><clipPath id="9fc2edfac6"><path d="M 248 24.585938 L 303 24.585938 L 303 54 L 248 54 Z M 248 24.585938 " clip-rule="nonzero"/></clipPath><clipPath id="f9238a8eae"><path d="M 1.378906 0 L 226 0 L 226 129 L 1.378906 129 Z M 1.378906 0 " clip-rule="nonzero"/></clipPath><clipPath id="028e0eaf23"><rect x="0" width="225" y="0" height="129"/></clipPath></defs><g clip-path="url(#e8428c182a)"><path fill="#1800ad" d="M 371.308594 48.097656 C 372.027344 45.535156 373.601562 40.425781 373.601562 40.425781 C 313.914062 35.394531 304.039062 62.484375 304.039062 62.484375 C 317.890625 44.714844 360.890625 47.210938 371.308594 48.097656 " fill-opacity="1" fill-rule="nonzero"/></g><g clip-path="url(#5c74a84e10)"><path fill="#2563eb" d="M 237 47.0625 C 236.324219 44.492188 234.828125 39.359375 234.828125 39.359375 C 294.585938 35.246094 304.039062 62.484375 304.039062 62.484375 C 290.464844 44.503906 247.429688 46.335938 237 47.0625 " fill-opacity="1" fill-rule="nonzero"/></g><g clip-path="url(#41b5696f78)"><path fill="#2563eb" d="M 234.480469 54.175781 L 248.371094 87.875 C 270.679688 90.578125 290.921875 84.285156 304.039062 101.113281 L 304.039062 68.34375 C 288.234375 48.070312 234.480469 54.175781 234.480469 54.175781 " fill-opacity="1" fill-rule="nonzero"/></g><g clip-path="url(#88e6e6ed9f)"><path fill="#1800ad" d="M 373.601562 54.175781 L 359.710938 87.875 C 337.398438 90.578125 317.15625 84.285156 304.039062 101.113281 L 304.039062 68.34375 C 319.84375 48.070312 373.601562 54.175781 373.601562 54.175781 " fill-opacity="1" fill-rule="nonzero"/></g><g clip-path="url(#c7e6e447b8)"><path fill="#1800ad" d="M 359.175781 24.585938 L 357.273438 32.613281 C 339.609375 34.347656 314.464844 39.253906 305.710938 53.089844 C 305.710938 53.089844 311.605469 29.613281 359.175781 24.585938 " fill-opacity="1" fill-rule="nonzero"/></g><g clip-path="url(#9fc2edfac6)"><path fill="#2563eb" d="M 248.902344 24.585938 L 250.808594 32.613281 C 268.472656 34.347656 293.617188 39.253906 302.371094 53.089844 C 302.371094 53.089844 296.476562 29.613281 248.902344 24.585938 " fill-opacity="1" fill-rule="nonzero"/></g><g clip-path="url(#f9238a8eae)"><g transform="matrix(1, 0, 0, 1, 1, -0.000000000000003367)"><g clip-path="url(#028e0eaf23)"><g fill="#1800ad" fill-opacity="1"><g transform="translate(0.694865, 103.787377)"><g><path d="M 5.5625 -4.9375 L 5.5625 -72.21875 C 5.5625 -73.65625 6.300781 -74.820312 7.78125 -75.71875 C 9.257812 -76.613281 11.164062 -77.0625 13.5 -77.0625 C 15.757812 -77.0625 17.660156 -76.613281 19.203125 -75.71875 C 20.753906 -74.820312 21.53125 -73.65625 21.53125 -72.21875 L 21.53125 -4.9375 C 21.53125 -3.707031 20.738281 -2.578125 19.15625 -1.546875 C 17.582031 -0.515625 15.695312 0 13.5 0 C 11.226562 0 9.335938 -0.492188 7.828125 -1.484375 C 6.316406 -2.484375 5.5625 -3.632812 5.5625 -4.9375 Z M 5.5625 -4.9375 "/></g></g></g><g fill="#1800ad" fill-opacity="1"><g transform="translate(27.787041, 103.787377)"><g><path d="M 2.78125 -20.8125 L 2.78125 -28.328125 C 2.78125 -34.160156 5.097656 -39.171875 9.734375 -43.359375 C 14.367188 -47.554688 19.945312 -49.65625 26.46875 -49.65625 C 32.582031 -49.65625 37.800781 -47.816406 42.125 -44.140625 C 46.457031 -40.460938 48.625 -35.773438 48.625 -30.078125 C 48.625 -27.878906 48.347656 -26.09375 47.796875 -24.71875 C 47.242188 -23.34375 46.414062 -22.378906 45.3125 -21.828125 C 44.21875 -21.285156 43.207031 -20.925781 42.28125 -20.75 C 41.351562 -20.582031 40.132812 -20.5 38.625 -20.5 L 18.75 -20.5 L 18.75 -19.875 C 18.75 -17.34375 19.707031 -15.300781 21.625 -13.75 C 23.550781 -12.207031 26.09375 -11.4375 29.25 -11.4375 C 31.65625 -11.4375 34.179688 -12.070312 36.828125 -13.34375 C 39.472656 -14.613281 41.242188 -15.25 42.140625 -15.25 C 43.847656 -15.25 45.25 -14.441406 46.34375 -12.828125 C 47.445312 -11.210938 48 -9.679688 48 -8.234375 C 48 -6.109375 46.160156 -4.03125 42.484375 -2 C 38.816406 0.0195312 34.269531 1.03125 28.84375 1.03125 C 21.15625 1.03125 14.890625 -0.972656 10.046875 -4.984375 C 5.203125 -9.003906 2.78125 -14.28125 2.78125 -20.8125 Z M 18.75 -29.46875 L 31.515625 -29.46875 C 32.960938 -29.46875 33.6875 -30.289062 33.6875 -31.9375 C 33.6875 -33.851562 32.945312 -35.359375 31.46875 -36.453125 C 29.988281 -37.554688 28.222656 -38.109375 26.171875 -38.109375 C 24.171875 -38.109375 22.429688 -37.554688 20.953125 -36.453125 C 19.484375 -35.359375 18.75 -33.851562 18.75 -31.9375 Z M 18.75 -29.46875 "/></g></g></g><g fill="#1800ad" fill-opacity="1"><g transform="translate(78.881029, 103.787377)"><g><path d="M 4.640625 -4.9375 L 4.640625 -44.1875 C 4.640625 -45.632812 5.375 -46.800781 6.84375 -47.6875 C 8.320312 -48.582031 10.195312 -49.03125 12.46875 -49.03125 C 14.457031 -49.03125 16.140625 -48.582031 17.515625 -47.6875 C 18.890625 -46.800781 19.578125 -45.632812 19.578125 -44.1875 L 19.578125 -40.375 C 20.671875 -42.851562 22.367188 -45.019531 24.671875 -46.875 C 26.972656 -48.726562 29.359375 -49.65625 31.828125 -49.65625 L 34.8125 -49.65625 C 36.320312 -49.65625 37.644531 -48.96875 38.78125 -47.59375 C 39.914062 -46.21875 40.484375 -44.601562 40.484375 -42.75 C 40.484375 -40.820312 39.914062 -39.171875 38.78125 -37.796875 C 37.644531 -36.429688 36.320312 -35.75 34.8125 -35.75 L 31.828125 -35.75 C 28.878906 -35.75 26.269531 -34.320312 24 -31.46875 C 21.738281 -28.625 20.609375 -24.929688 20.609375 -20.390625 L 20.609375 -4.9375 C 20.609375 -3.707031 19.800781 -2.578125 18.1875 -1.546875 C 16.570312 -0.515625 14.664062 0 12.46875 0 C 10.269531 0 8.414062 -0.492188 6.90625 -1.484375 C 5.394531 -2.484375 4.640625 -3.632812 4.640625 -4.9375 Z M 4.640625 -4.9375 "/></g></g></g><g fill="#1800ad" fill-opacity="1"><g transform="translate(119.467792, 103.787377)"><g><path d="M 4.640625 -4.9375 L 4.640625 -44.1875 C 4.640625 -45.632812 5.375 -46.800781 6.84375 -47.6875 C 8.320312 -48.582031 10.226562 -49.03125 12.5625 -49.03125 C 14.488281 -49.03125 16.140625 -48.582031 17.515625 -47.6875 C 18.890625 -46.800781 19.578125 -45.632812 19.578125 -44.1875 L 19.578125 -41.828125 C 20.671875 -44.023438 22.4375 -45.878906 24.875 -47.390625 C 27.3125 -48.898438 30.144531 -49.65625 33.375 -49.65625 C 38.113281 -49.65625 42.21875 -47.523438 45.6875 -43.265625 C 49.15625 -39.003906 50.890625 -33.921875 50.890625 -28.015625 L 50.890625 -4.9375 C 50.890625 -3.363281 50.097656 -2.144531 48.515625 -1.28125 C 46.941406 -0.425781 45.054688 0 42.859375 0 C 40.796875 0 38.957031 -0.441406 37.34375 -1.328125 C 35.726562 -2.222656 34.921875 -3.425781 34.921875 -4.9375 L 34.921875 -28.015625 C 34.921875 -30.003906 34.179688 -31.789062 32.703125 -33.375 C 31.234375 -34.957031 29.5 -35.75 27.5 -35.75 C 25.71875 -35.75 24.125 -35.039062 22.71875 -33.625 C 21.3125 -32.21875 20.609375 -30.347656 20.609375 -28.015625 L 20.609375 -4.9375 C 20.609375 -3.707031 19.800781 -2.578125 18.1875 -1.546875 C 16.570312 -0.515625 14.695312 0 12.5625 0 C 10.300781 0 8.414062 -0.492188 6.90625 -1.484375 C 5.394531 -2.484375 4.640625 -3.632812 4.640625 -4.9375 Z M 4.640625 -4.9375 "/></g></g></g><g fill="#1800ad" fill-opacity="1"><g transform="translate(174.476267, 103.787377)"><g><path d="M 1.859375 -12.671875 C 1.859375 -18.367188 3.929688 -22.382812 8.078125 -24.71875 C 12.234375 -27.050781 18.191406 -28.21875 25.953125 -28.21875 L 29.671875 -28.21875 L 29.671875 -29.25 C 29.671875 -31.3125 29.050781 -33.097656 27.8125 -34.609375 C 26.570312 -36.117188 24.613281 -36.875 21.9375 -36.875 C 18.644531 -36.875 15.929688 -36.304688 13.796875 -35.171875 C 11.671875 -34.046875 10.367188 -33.484375 9.890625 -33.484375 C 8.242188 -33.484375 6.9375 -34.289062 5.96875 -35.90625 C 5.007812 -37.519531 4.53125 -39.351562 4.53125 -41.40625 C 4.53125 -43.675781 6.4375 -45.617188 10.25 -47.234375 C 14.0625 -48.847656 18.023438 -49.65625 22.140625 -49.65625 C 30.046875 -49.65625 35.9375 -47.726562 39.8125 -43.875 C 43.695312 -40.03125 45.640625 -35.226562 45.640625 -29.46875 L 45.640625 -4.9375 C 45.640625 -3.570312 44.898438 -2.40625 43.421875 -1.4375 C 41.941406 -0.476562 40.070312 0 37.8125 0 C 35.8125 0 34.125 -0.476562 32.75 -1.4375 C 31.382812 -2.40625 30.703125 -3.570312 30.703125 -4.9375 L 30.703125 -7.21875 C 25.960938 -1.71875 20.742188 1.03125 15.046875 1.03125 C 11.265625 1.03125 8.117188 -0.132812 5.609375 -2.46875 C 3.109375 -4.800781 1.859375 -8.203125 1.859375 -12.671875 Z M 17.921875 -14.9375 C 17.921875 -12.050781 19.257812 -10.609375 21.9375 -10.609375 C 23.65625 -10.609375 25.375 -11.566406 27.09375 -13.484375 C 28.8125 -15.410156 29.671875 -17.613281 29.671875 -20.09375 L 29.671875 -20.5 L 29.25 -20.5 C 26.988281 -20.5 25.117188 -20.394531 23.640625 -20.1875 C 22.160156 -19.976562 20.835938 -19.445312 19.671875 -18.59375 C 18.503906 -17.738281 17.921875 -16.519531 17.921875 -14.9375 Z M 17.921875 -14.9375 "/></g></g></g></g></g></g></svg>