<svg xmlns="http://www.w3.org/2000/svg" xmlns:xlink="http://www.w3.org/1999/xlink" width="85" zoomAndPan="magnify" viewBox="0 0 63.75 37.5" height="50" preserveAspectRatio="xMidYMid meet" version="1.0"><defs><clipPath id="8c8a70c1fa"><path d="M 31 6 L 63.207031 6 L 63.207031 18 L 31 18 Z M 31 6 " clip-rule="nonzero"/></clipPath><clipPath id="04094c848d"><path d="M 0.296875 6 L 32 6 L 32 18 L 0.296875 18 Z M 0.296875 6 " clip-rule="nonzero"/></clipPath><clipPath id="a32c59e7bb"><path d="M 0.296875 12 L 32 12 L 32 34.785156 L 0.296875 34.785156 Z M 0.296875 12 " clip-rule="nonzero"/></clipPath><clipPath id="b66eaae2d5"><path d="M 31 12 L 63.207031 12 L 63.207031 34.785156 L 31 34.785156 Z M 31 12 " clip-rule="nonzero"/></clipPath><clipPath id="1d53f4fefa"><path d="M 31 6 L 63.207031 6 L 63.207031 18 L 31 18 Z M 31 6 " clip-rule="nonzero"/></clipPath><clipPath id="2431c548df"><path d="M 0.296875 6 L 32 6 L 32 18 L 0.296875 18 Z M 0.296875 6 " clip-rule="nonzero"/></clipPath><clipPath id="753623ff4c"><path d="M 0.296875 12 L 32 12 L 32 34.785156 L 0.296875 34.785156 Z M 0.296875 12 " clip-rule="nonzero"/></clipPath><clipPath id="c3afaa5f5f"><path d="M 31 12 L 63.207031 12 L 63.207031 34.785156 L 31 34.785156 Z M 31 12 " clip-rule="nonzero"/></clipPath></defs><g clip-path="url(#8c8a70c1fa)"><path fill="#1800ad" d="M 62.164062 10.628906 C 62.488281 9.472656 63.203125 7.164062 63.203125 7.164062 C 36.214844 4.886719 31.75 17.132812 31.75 17.132812 C 38.015625 9.101562 57.457031 10.230469 62.164062 10.628906 " fill-opacity="1" fill-rule="nonzero"/></g><g clip-path="url(#04094c848d)"><path fill="#2563eb" d="M 1.441406 10.164062 C 1.136719 9 0.457031 6.679688 0.457031 6.679688 C 27.476562 4.820312 31.75 17.132812 31.75 17.132812 C 25.613281 9.007812 6.15625 9.835938 1.441406 10.164062 " fill-opacity="1" fill-rule="nonzero"/></g><g clip-path="url(#a32c59e7bb)"><path fill="#2563eb" d="M 0.300781 13.378906 L 6.582031 28.613281 C 16.667969 29.835938 25.820312 26.992188 31.75 34.601562 L 31.75 19.785156 C 24.605469 10.617188 0.300781 13.378906 0.300781 13.378906 " fill-opacity="1" fill-rule="nonzero"/></g><g clip-path="url(#b66eaae2d5)"><path fill="#1800ad" d="M 63.203125 13.378906 L 56.921875 28.613281 C 46.835938 29.835938 37.683594 26.992188 31.75 34.601562 L 31.75 19.785156 C 38.898438 10.617188 63.203125 13.378906 63.203125 13.378906 " fill-opacity="1" fill-rule="nonzero"/></g><path fill="#1800ad" d="M 56.679688 0 L 55.820312 3.628906 C 47.832031 4.414062 36.464844 6.632812 32.507812 12.886719 C 32.507812 12.886719 35.171875 2.273438 56.679688 0 " fill-opacity="1" fill-rule="nonzero"/><path fill="#2563eb" d="M 6.824219 0 L 7.683594 3.628906 C 15.671875 4.414062 27.039062 6.632812 30.996094 12.886719 C 30.996094 12.886719 28.332031 2.273438 6.824219 0 " fill-opacity="1" fill-rule="nonzero"/><g clip-path="url(#1d53f4fefa)"><path fill="#1800ad" d="M 62.164062 10.628906 C 62.488281 9.472656 63.203125 7.164062 63.203125 7.164062 C 36.214844 4.886719 31.75 17.132812 31.75 17.132812 C 38.015625 9.101562 57.457031 10.230469 62.164062 10.628906 " fill-opacity="1" fill-rule="nonzero"/></g><g clip-path="url(#2431c548df)"><path fill="#2563eb" d="M 1.441406 10.164062 C 1.136719 9 0.457031 6.679688 0.457031 6.679688 C 27.476562 4.820312 31.75 17.132812 31.75 17.132812 C 25.613281 9.007812 6.15625 9.835938 1.441406 10.164062 " fill-opacity="1" fill-rule="nonzero"/></g><g clip-path="url(#753623ff4c)"><path fill="#2563eb" d="M 0.300781 13.378906 L 6.582031 28.613281 C 16.667969 29.835938 25.820312 26.992188 31.75 34.601562 L 31.75 19.785156 C 24.605469 10.617188 0.300781 13.378906 0.300781 13.378906 " fill-opacity="1" fill-rule="nonzero"/></g><g clip-path="url(#c3afaa5f5f)"><path fill="#1800ad" d="M 63.203125 13.378906 L 56.921875 28.613281 C 46.835938 29.835938 37.683594 26.992188 31.75 34.601562 L 31.75 19.785156 C 38.898438 10.617188 63.203125 13.378906 63.203125 13.378906 " fill-opacity="1" fill-rule="nonzero"/></g><path fill="#1800ad" d="M 56.679688 0 L 55.820312 3.628906 C 47.832031 4.414062 36.464844 6.632812 32.507812 12.886719 C 32.507812 12.886719 35.171875 2.273438 56.679688 0 " fill-opacity="1" fill-rule="nonzero"/><path fill="#2563eb" d="M 6.824219 0 L 7.683594 3.628906 C 15.671875 4.414062 27.039062 6.632812 30.996094 12.886719 C 30.996094 12.886719 28.332031 2.273438 6.824219 0 " fill-opacity="1" fill-rule="nonzero"/></svg>