<svg xmlns="http://www.w3.org/2000/svg" xmlns:xlink="http://www.w3.org/1999/xlink" width="500" zoomAndPan="magnify" viewBox="0 0 375 112.499997" height="150" preserveAspectRatio="xMidYMid meet" version="1.0"><defs><g/><clipPath id="370414ce99"><path d="M 10 0 L 373 0 L 373 112.003906 L 10 112.003906 Z M 10 0 " clip-rule="nonzero"/></clipPath><clipPath id="9d7450e0d9"><rect x="0" width="363" y="0" height="113"/></clipPath></defs><g clip-path="url(#370414ce99)"><g transform="matrix(1, 0, 0, 1, 10, 0)"><g clip-path="url(#9d7450e0d9)"><g fill="#2fdfdf" fill-opacity="1"><g transform="translate(8.040627, 100.980287)"><g><path d="M 63.96875 -38.203125 C 66.28125 -38.203125 67.4375 -37.25 67.4375 -35.34375 C 67.4375 -33 66.03125 -30.203125 63.21875 -26.953125 C 58.5625 -21.535156 53.078125 -16.269531 46.765625 -11.15625 C 36.484375 -2.925781 27.300781 1.1875 19.21875 1.1875 C 13.40625 1.1875 8.640625 -1.335938 4.921875 -6.390625 C 1.066406 -11.648438 -0.859375 -18.722656 -0.859375 -27.609375 C -0.859375 -39.253906 4.820312 -52.132812 16.1875 -66.25 C 23.394531 -75.226562 30.195312 -81.328125 36.59375 -84.546875 C 38.570312 -85.554688 40.09375 -86.0625 41.15625 -86.0625 C 42.21875 -86.0625 43.191406 -85.890625 44.078125 -85.546875 C 44.960938 -85.203125 45.785156 -84.722656 46.546875 -84.109375 C 48.316406 -82.628906 49.203125 -80.84375 49.203125 -78.75 C 49.203125 -76.65625 48.625 -74.171875 47.46875 -71.296875 C 46.3125 -68.429688 44.632812 -65.378906 42.4375 -62.140625 C 37.78125 -55.242188 31.484375 -48.640625 23.546875 -42.328125 C 21.484375 -38.390625 20.453125 -33.660156 20.453125 -28.140625 C 20.453125 -25.648438 21.25 -23.304688 22.84375 -21.109375 C 24.46875 -18.910156 26.253906 -17.8125 28.203125 -17.8125 C 30.867188 -17.8125 35.972656 -20.570312 43.515625 -26.09375 L 53.15625 -33.5 C 57.082031 -36.632812 60.6875 -38.203125 63.96875 -38.203125 Z M 63.96875 -38.203125 "/></g></g></g><g fill="#2fdfdf" fill-opacity="1"><g transform="translate(61.079936, 100.980287)"><g><path d="M 74.859375 -39.78125 C 76.585938 -39.78125 77.453125 -38.804688 77.453125 -36.859375 C 77.453125 -35.554688 77.007812 -33.921875 76.125 -31.953125 C 75.238281 -29.992188 73.960938 -28.15625 72.296875 -26.4375 C 70.640625 -24.726562 68.738281 -22.953125 66.59375 -21.109375 C 64.445312 -19.265625 61.9375 -17.332031 59.0625 -15.3125 C 56.195312 -13.289062 53.03125 -11.285156 49.5625 -9.296875 C 46.101562 -7.316406 42.425781 -5.535156 38.53125 -3.953125 C 29.90625 -0.410156 21.554688 1.359375 13.484375 1.359375 C 7.304688 1.359375 1.910156 -0.25 -2.703125 -3.46875 C -7.535156 -6.820312 -9.953125 -10.898438 -9.953125 -15.703125 C -9.953125 -23.234375 -5.894531 -30.394531 2.21875 -37.1875 C 9.21875 -43.03125 17.460938 -47.554688 26.953125 -50.765625 C 32.722656 -52.710938 37.613281 -53.6875 41.625 -53.6875 C 44.863281 -53.6875 47.601562 -52.894531 49.84375 -51.3125 C 52.226562 -49.570312 53.421875 -47.242188 53.421875 -44.328125 C 53.421875 -39.742188 49.796875 -34.675781 42.546875 -29.125 C 41.390625 -28.21875 40.34375 -27.457031 39.40625 -26.84375 L 37.453125 -25.546875 C 33.847656 -23.015625 28.363281 -20.179688 21 -17.046875 C 23.269531 -15.859375 25.390625 -15.265625 27.359375 -15.265625 C 29.328125 -15.265625 31.09375 -15.5 32.65625 -15.96875 C 34.226562 -16.4375 36.003906 -17.101562 37.984375 -17.96875 C 39.972656 -18.832031 42.09375 -19.867188 44.34375 -21.078125 C 46.601562 -22.285156 48.890625 -23.613281 51.203125 -25.0625 C 56.359375 -28.269531 60.832031 -31.550781 64.625 -34.90625 C 66.601562 -36.75 69.128906 -38.210938 72.203125 -39.296875 C 73.210938 -39.617188 74.097656 -39.78125 74.859375 -39.78125 Z M 15.15625 -24.578125 L 18.125 -26.09375 C 19.101562 -26.59375 19.972656 -27.0625 20.734375 -27.5 C 28.015625 -31.675781 32.160156 -34.253906 33.171875 -35.234375 C 34.179688 -36.210938 34.6875 -36.890625 34.6875 -37.265625 C 34.6875 -37.640625 34.578125 -38.078125 34.359375 -38.578125 C 34.148438 -39.085938 33.863281 -39.539062 33.5 -39.9375 C 32.632812 -40.945312 31.710938 -41.453125 30.734375 -41.453125 C 29.765625 -41.453125 28.691406 -41.269531 27.515625 -40.90625 C 26.347656 -40.550781 25.164062 -40.054688 23.96875 -39.421875 C 22.78125 -38.796875 21.632812 -38.039062 20.53125 -37.15625 C 19.4375 -36.269531 18.472656 -35.320312 17.640625 -34.3125 C 15.734375 -32.039062 14.78125 -30.070312 14.78125 -28.40625 C 14.78125 -26.75 14.90625 -25.472656 15.15625 -24.578125 Z M 15.15625 -24.578125 "/></g></g></g><g fill="#2fdfdf" fill-opacity="1"><g transform="translate(123.265457, 100.980287)"><g><path d="M -2.921875 -17.859375 C -3.609375 -17.859375 -4.285156 -18.019531 -4.953125 -18.34375 C -5.617188 -18.664062 -6.238281 -19.191406 -6.8125 -19.921875 C -8.082031 -21.503906 -8.71875 -23.664062 -8.71875 -26.40625 C -8.71875 -29.332031 -6.96875 -32.976562 -3.46875 -37.34375 C -0.0703125 -41.5625 3.878906 -45.207031 8.390625 -48.28125 C 13.222656 -51.59375 17.375 -53.25 20.84375 -53.25 C 23.90625 -53.25 25.976562 -52.382812 27.0625 -50.65625 L 27.8125 -49.46875 C 28.394531 -48.5625 28.972656 -48.109375 29.546875 -48.109375 C 30.128906 -48.109375 31.03125 -48.164062 32.25 -48.28125 L 39.9375 -48.8125 C 41.132812 -48.925781 42.070312 -48.984375 42.75 -48.984375 C 43.4375 -48.984375 44.222656 -48.738281 45.109375 -48.25 C 45.992188 -47.757812 46.78125 -47.117188 47.46875 -46.328125 C 48.976562 -44.523438 49.734375 -42.539062 49.734375 -40.375 C 49.734375 -38.132812 47.265625 -34.617188 42.328125 -29.828125 L 38.75 -26.25 C 36.1875 -23.613281 34.90625 -21.953125 34.90625 -21.265625 C 34.90625 -20.578125 35.226562 -19.972656 35.875 -19.453125 C 36.53125 -18.929688 37.234375 -18.671875 37.984375 -18.671875 C 38.742188 -18.671875 39.601562 -18.878906 40.5625 -19.296875 C 41.519531 -19.710938 42.703125 -20.328125 44.109375 -21.140625 C 45.515625 -21.953125 47.117188 -22.929688 48.921875 -24.078125 C 53.867188 -27.328125 57.171875 -29.566406 58.828125 -30.796875 L 63.328125 -33.984375 C 66.390625 -36.148438 68.570312 -37.234375 69.875 -37.234375 C 71.175781 -37.234375 72.238281 -36.953125 73.0625 -36.390625 C 73.894531 -35.835938 74.3125 -34.875 74.3125 -33.5 C 74.3125 -32.132812 73.609375 -30.296875 72.203125 -27.984375 C 70.796875 -25.671875 69.269531 -23.664062 67.625 -21.96875 C 65.976562 -20.28125 64.378906 -18.710938 62.828125 -17.265625 C 61.285156 -15.816406 59.457031 -14.253906 57.34375 -12.578125 C 55.226562 -10.898438 52.890625 -9.203125 50.328125 -7.484375 C 47.765625 -5.773438 45.0625 -4.238281 42.21875 -2.875 C 35.757812 0.269531 29.820312 1.84375 24.40625 1.84375 C 16.507812 1.84375 11.691406 -0.195312 9.953125 -4.28125 C 9.410156 -5.5 9.140625 -6.863281 9.140625 -8.375 C 9.140625 -9.894531 9.425781 -11.53125 10 -13.28125 C 10.582031 -15.03125 11.34375 -16.773438 12.28125 -18.515625 C 14.15625 -21.941406 16.375 -24.972656 18.9375 -27.609375 C 21.101562 -29.878906 22.1875 -31.226562 22.1875 -31.65625 C 22.1875 -32.34375 21.796875 -32.773438 21.015625 -32.953125 C 20.242188 -33.140625 19.101562 -33.234375 17.59375 -33.234375 C 16.9375 -33.234375 15.546875 -32.296875 13.421875 -30.421875 L 8.125 -25.546875 C 2.488281 -20.421875 -1.191406 -17.859375 -2.921875 -17.859375 Z M -2.921875 -17.859375 "/></g></g></g><g fill="#2fdfdf" fill-opacity="1"><g transform="translate(185.450978, 100.980287)"><g><path d="M 60.234375 -29.0625 C 60.234375 -25.78125 61.191406 -24.140625 63.109375 -24.140625 C 67.796875 -24.140625 73.894531 -27.316406 81.40625 -33.671875 L 82.859375 -34.90625 C 85.785156 -36.851562 88.160156 -37.828125 89.984375 -37.828125 C 91.804688 -37.828125 92.957031 -37.554688 93.4375 -37.015625 C 93.925781 -36.472656 94.171875 -35.609375 94.171875 -34.421875 C 94.171875 -31.753906 92.816406 -28.921875 90.109375 -25.921875 C 86.066406 -21.015625 80.53125 -16.363281 73.5 -11.96875 C 65.34375 -6.84375 58.035156 -4.28125 51.578125 -4.28125 C 47.066406 -4.28125 44.234375 -6.785156 43.078125 -11.796875 C 42.753906 -13.097656 42.519531 -14.34375 42.375 -15.53125 C 42.019531 -18.414062 41.640625 -20.019531 41.234375 -20.34375 C 40.835938 -20.675781 40.050781 -20.648438 38.875 -20.265625 C 37.707031 -19.890625 36.320312 -19.257812 34.71875 -18.375 C 33.113281 -17.488281 31.335938 -16.414062 29.390625 -15.15625 C 19.066406 -8.300781 13.128906 -4.382812 11.578125 -3.40625 C 7.859375 -1.101562 5.347656 0.046875 4.046875 0.046875 C 2.753906 0.046875 1.484375 -0.21875 0.234375 -0.75 C -1.003906 -1.289062 -2.09375 -1.976562 -3.03125 -2.8125 C -4.976562 -4.65625 -5.953125 -6.53125 -5.953125 -8.4375 C -5.953125 -19.375 -3.570312 -28.9375 1.1875 -37.125 C 4.363281 -42.644531 8.257812 -46.472656 12.875 -48.609375 C 15.226562 -49.722656 17.753906 -50.28125 20.453125 -50.28125 C 25.398438 -50.28125 27.875 -48.65625 27.875 -45.40625 C 27.875 -43.425781 26.703125 -40.179688 24.359375 -35.671875 L 22.734375 -32.46875 C 21.578125 -30.269531 21.015625 -29.023438 21.046875 -28.734375 C 21.265625 -27.648438 21.753906 -27.109375 22.515625 -27.109375 C 23.347656 -27.109375 24.578125 -27.722656 26.203125 -28.953125 L 36.15625 -36.375 L 41.140625 -39.828125 C 46.867188 -43.585938 51.085938 -45.46875 53.796875 -45.46875 C 55.242188 -45.46875 56.5625 -44.890625 57.75 -43.734375 C 59.945312 -41.640625 61.046875 -39.816406 61.046875 -38.265625 C 61.046875 -37.753906 61 -37.140625 60.90625 -36.421875 C 60.820312 -35.703125 60.726562 -34.925781 60.625 -34.09375 L 60.40625 -31.546875 C 60.289062 -30.679688 60.234375 -29.851562 60.234375 -29.0625 Z M 60.234375 -29.0625 "/></g></g></g><g fill="#2fdfdf" fill-opacity="1"><g transform="translate(266.091282, 100.980287)"><g><path d="M 94.015625 -40.640625 C 95.171875 -40.640625 95.75 -39.664062 95.75 -37.71875 C 95.75 -34.363281 93.398438 -30.019531 88.703125 -24.6875 L 85.625 -21.546875 C 76.28125 -12.191406 67.472656 -5.96875 59.203125 -2.875 C 54.085938 -0.957031 50.410156 -1.046875 48.171875 -3.140625 C 46.328125 -4.910156 44.863281 -7.757812 43.78125 -11.6875 L 42.484375 -16.40625 L 30.953125 -9.3125 L 24.296875 -5.515625 C 16.359375 -1.191406 10.40625 0.96875 6.4375 0.96875 C 1.351562 0.96875 -2.882812 -0.992188 -6.28125 -4.921875 C -9.53125 -8.640625 -11.15625 -12.953125 -11.15625 -17.859375 C -11.15625 -22.691406 -9.222656 -27.003906 -5.359375 -30.796875 C 0.160156 -36.210938 8.875 -41.175781 20.78125 -45.6875 C 32.039062 -49.90625 41.132812 -52.015625 48.0625 -52.015625 C 50.40625 -52.015625 51.578125 -50.859375 51.578125 -48.546875 C 51.578125 -46.960938 51.269531 -45.769531 50.65625 -44.96875 C 50.039062 -44.175781 48.78125 -43.367188 46.875 -42.546875 L 40.046875 -39.625 C 29.941406 -35.394531 22.546875 -31.007812 17.859375 -26.46875 C 16.523438 -25.207031 15.859375 -23.976562 15.859375 -22.78125 C 15.859375 -21.59375 16.8125 -21 18.71875 -21 C 20.601562 -21 24.972656 -23.019531 31.828125 -27.0625 L 36.3125 -29.71875 C 43.28125 -33.894531 49.109375 -35.984375 53.796875 -35.984375 C 57.765625 -35.984375 60.398438 -34.234375 61.703125 -30.734375 C 62.023438 -29.796875 62.328125 -28.847656 62.609375 -27.890625 C 62.898438 -26.941406 63.191406 -26.085938 63.484375 -25.328125 C 64.128906 -23.554688 64.710938 -22.671875 65.234375 -22.671875 C 65.765625 -22.671875 66.515625 -22.929688 67.484375 -23.453125 C 68.460938 -23.984375 69.535156 -24.65625 70.703125 -25.46875 C 71.878906 -26.28125 73.097656 -27.171875 74.359375 -28.140625 L 80.90625 -33.390625 C 86.71875 -38.222656 91.085938 -40.640625 94.015625 -40.640625 Z M 94.015625 -40.640625 "/></g></g></g><g fill="#2fdfdf" fill-opacity="1"><g transform="translate(3.251084, 100.221699)"><g><path d="M 63.96875 -38.726562 C 65.25 -38.726562 66.226562 -38.449219 66.898438 -37.890625 C 67.601562 -37.308594 67.953125 -36.460938 67.953125 -35.339844 C 67.953125 -32.867188 66.503906 -29.957031 63.605469 -26.613281 C 58.929688 -21.175781 53.425781 -15.886719 47.085938 -10.746094 C 36.707031 -2.441406 27.417969 1.710938 19.210938 1.710938 C 13.230469 1.710938 8.328125 -0.886719 4.507812 -6.078125 C 0.578125 -11.4375 -1.386719 -18.613281 -1.386719 -27.601562 C -1.386719 -39.378906 4.335938 -52.367188 15.777344 -66.570312 C 23.039062 -75.609375 29.898438 -81.753906 36.351562 -85 C 38.410156 -86.046875 40.011719 -86.570312 41.160156 -86.570312 C 42.289062 -86.570312 43.324219 -86.386719 44.269531 -86.019531 C 45.203125 -85.660156 46.070312 -85.152344 46.871094 -84.507812 C 48.765625 -82.917969 49.714844 -81 49.714844 -78.746094 C 49.714844 -76.585938 49.125 -74.039062 47.945312 -71.109375 C 46.777344 -68.207031 45.082031 -65.117188 42.859375 -61.839844 C 38.175781 -54.902344 31.84375 -48.261719 23.867188 -41.914062 L 23.542969 -42.320312 L 24.003906 -42.082031 C 21.984375 -38.222656 20.976562 -33.578125 20.976562 -28.140625 C 20.976562 -25.765625 21.738281 -23.519531 23.261719 -21.410156 C 24.777344 -19.355469 26.421875 -18.324219 28.195312 -18.324219 C 30.753906 -18.324219 35.757812 -21.050781 43.207031 -26.503906 L 43.511719 -26.085938 L 43.195312 -26.496094 L 52.828125 -33.910156 C 56.851562 -37.121094 60.566406 -38.726562 63.96875 -38.726562 Z M 63.96875 -37.6875 C 60.808594 -37.6875 57.304688 -36.15625 53.460938 -33.089844 L 43.824219 -25.671875 L 43.820312 -25.667969 C 36.1875 -20.078125 30.980469 -17.285156 28.195312 -17.285156 C 26.074219 -17.285156 24.148438 -18.457031 22.417969 -20.804688 C 20.765625 -23.09375 19.9375 -25.542969 19.9375 -28.140625 C 19.9375 -33.746094 20.984375 -38.554688 23.082031 -42.5625 L 23.132812 -42.660156 L 23.21875 -42.726562 C 31.113281 -49.007812 37.375 -55.574219 42 -62.421875 C 44.179688 -65.636719 45.839844 -68.664062 46.980469 -71.496094 C 48.109375 -74.304688 48.675781 -76.71875 48.675781 -78.746094 C 48.675781 -80.675781 47.855469 -82.328125 46.214844 -83.699219 C 45.5 -84.277344 44.726562 -84.730469 43.894531 -85.050781 C 43.070312 -85.371094 42.15625 -85.53125 41.160156 -85.53125 C 40.175781 -85.53125 38.730469 -85.042969 36.820312 -84.070312 C 30.5 -80.894531 23.753906 -74.84375 16.585938 -65.917969 C 5.296875 -51.90625 -0.347656 -39.132812 -0.347656 -27.601562 C -0.347656 -18.839844 1.550781 -11.871094 5.34375 -6.695312 C 8.957031 -1.785156 13.578125 0.671875 19.210938 0.671875 C 27.171875 0.671875 36.246094 -3.402344 46.433594 -11.550781 C 52.722656 -16.65625 58.183594 -21.902344 62.820312 -27.292969 C 65.550781 -30.441406 66.914062 -33.125 66.914062 -35.339844 C 66.914062 -36.132812 66.6875 -36.71875 66.234375 -37.089844 C 65.753906 -37.488281 65 -37.6875 63.96875 -37.6875 Z M 63.96875 -37.6875 "/></g></g></g><g fill="#2fdfdf" fill-opacity="1"><g transform="translate(56.290393, 100.221699)"><g><path d="M 74.847656 -40.296875 C 75.871094 -40.296875 76.648438 -39.996094 77.183594 -39.394531 C 77.707031 -38.808594 77.964844 -37.960938 77.964844 -36.855469 C 77.964844 -35.484375 77.507812 -33.777344 76.59375 -31.746094 C 75.683594 -29.722656 74.378906 -27.832031 72.675781 -26.078125 C 71.007812 -24.351562 69.09375 -22.5625 66.933594 -20.710938 C 64.773438 -18.863281 62.253906 -16.921875 59.371094 -14.890625 C 56.488281 -12.863281 53.308594 -10.851562 49.832031 -8.859375 C 46.347656 -6.863281 42.648438 -5.066406 38.730469 -3.46875 C 30.042969 0.09375 21.625 1.871094 13.476562 1.871094 C 7.199219 1.871094 1.703125 0.234375 -3.003906 -3.035156 C -7.984375 -6.496094 -10.476562 -10.714844 -10.476562 -15.695312 C -10.476562 -23.398438 -6.355469 -30.691406 1.886719 -37.578125 C 8.933594 -43.464844 17.234375 -48.023438 26.785156 -51.257812 C 32.613281 -53.222656 37.554688 -54.207031 41.617188 -54.207031 C 44.976562 -54.207031 47.816406 -53.382812 50.144531 -51.730469 C 52.671875 -49.890625 53.9375 -47.421875 53.9375 -44.324219 C 53.9375 -39.570312 50.242188 -34.363281 42.855469 -28.703125 C 41.691406 -27.796875 40.632812 -27.03125 39.683594 -26.410156 L 37.738281 -25.113281 L 37.449219 -25.542969 L 37.75 -25.117188 C 34.113281 -22.574219 28.597656 -19.722656 21.203125 -16.570312 L 21 -17.046875 L 21.238281 -17.507812 C 23.4375 -16.355469 25.476562 -15.78125 27.359375 -15.78125 C 29.273438 -15.78125 30.992188 -16.007812 32.511719 -16.464844 C 34.0625 -16.925781 35.820312 -17.585938 37.785156 -18.445312 C 39.757812 -19.304688 41.863281 -20.335938 44.105469 -21.539062 C 46.351562 -22.742188 48.621094 -24.0625 50.921875 -25.5 C 56.058594 -28.695312 60.507812 -31.960938 64.273438 -35.296875 L 64.621094 -34.90625 L 64.265625 -35.289062 C 66.304688 -37.175781 68.890625 -38.675781 72.023438 -39.78125 L 72.03125 -39.785156 L 72.039062 -39.785156 C 73.097656 -40.128906 74.035156 -40.296875 74.847656 -40.296875 Z M 74.847656 -39.257812 C 74.144531 -39.257812 73.3125 -39.105469 72.355469 -38.796875 L 72.195312 -39.292969 L 72.367188 -38.800781 C 69.371094 -37.742188 66.90625 -36.316406 64.972656 -34.527344 L 64.964844 -34.519531 C 61.152344 -31.144531 56.65625 -27.84375 51.472656 -24.617188 C 49.152344 -23.167969 46.863281 -21.835938 44.597656 -20.621094 C 42.328125 -19.40625 40.199219 -18.363281 38.199219 -17.492188 C 36.195312 -16.617188 34.398438 -15.941406 32.808594 -15.46875 C 31.191406 -14.984375 29.375 -14.742188 27.359375 -14.742188 C 25.304688 -14.742188 23.105469 -15.355469 20.757812 -16.585938 L 19.785156 -17.097656 L 20.792969 -17.527344 C 28.121094 -20.652344 33.574219 -23.464844 37.152344 -25.96875 L 37.15625 -25.972656 L 39.113281 -27.277344 C 40.039062 -27.882812 41.078125 -28.632812 42.222656 -29.527344 C 49.339844 -34.980469 52.898438 -39.914062 52.898438 -44.324219 C 52.898438 -47.070312 51.777344 -49.257812 49.542969 -50.882812 C 47.398438 -52.40625 44.753906 -53.167969 41.617188 -53.167969 C 37.671875 -53.167969 32.835938 -52.203125 27.117188 -50.273438 C 17.691406 -47.082031 9.5 -42.585938 2.550781 -36.78125 C -5.441406 -30.101562 -9.4375 -23.074219 -9.4375 -15.695312 C -9.4375 -11.078125 -7.09375 -7.140625 -2.410156 -3.890625 C 2.121094 -0.742188 7.414062 0.832031 13.476562 0.832031 C 21.488281 0.832031 29.777344 -0.921875 38.335938 -4.433594 C 42.210938 -6.011719 45.871094 -7.785156 49.316406 -9.757812 C 52.765625 -11.734375 55.917969 -13.730469 58.773438 -15.742188 C 61.628906 -17.75 64.121094 -19.671875 66.257812 -21.5 C 68.390625 -23.332031 70.28125 -25.097656 71.929688 -26.800781 C 73.546875 -28.46875 74.785156 -30.261719 75.644531 -32.171875 C 76.5 -34.070312 76.925781 -35.632812 76.925781 -36.855469 C 76.925781 -37.699219 76.753906 -38.3125 76.40625 -38.703125 C 76.078125 -39.074219 75.558594 -39.257812 74.847656 -39.257812 Z M 14.917969 -25.035156 L 17.894531 -26.550781 C 18.859375 -27.050781 19.71875 -27.515625 20.46875 -27.945312 C 27.71875 -32.109375 31.835938 -34.660156 32.816406 -35.605469 C 33.300781 -36.074219 33.660156 -36.464844 33.894531 -36.78125 C 34.078125 -37.027344 34.171875 -37.1875 34.171875 -37.261719 C 34.171875 -37.570312 34.078125 -37.941406 33.890625 -38.382812 C 33.695312 -38.835938 33.4375 -39.238281 33.117188 -39.589844 L 33.105469 -39.601562 C 32.34375 -40.492188 31.554688 -40.9375 30.738281 -40.9375 C 29.816406 -40.9375 28.796875 -40.761719 27.671875 -40.417969 C 26.53125 -40.066406 25.378906 -39.582031 24.21875 -38.96875 C 23.058594 -38.351562 21.9375 -37.613281 20.863281 -36.75 C 19.792969 -35.886719 18.851562 -34.964844 18.042969 -33.980469 C 16.210938 -31.804688 15.292969 -29.945312 15.292969 -28.414062 C 15.292969 -26.800781 15.414062 -25.566406 15.652344 -24.710938 L 15.152344 -24.570312 Z M 15.390625 -24.109375 L 14.824219 -23.820312 L 14.652344 -24.429688 C 14.386719 -25.378906 14.253906 -26.707031 14.253906 -28.414062 C 14.253906 -30.199219 15.25 -32.273438 17.242188 -34.640625 C 18.09375 -35.679688 19.085938 -36.652344 20.214844 -37.558594 C 21.339844 -38.464844 22.511719 -39.238281 23.730469 -39.886719 C 24.953125 -40.53125 26.164062 -41.039062 27.367188 -41.410156 C 28.589844 -41.789062 29.714844 -41.976562 30.738281 -41.976562 C 31.875 -41.976562 32.925781 -41.410156 33.894531 -40.277344 L 33.5 -39.941406 L 33.882812 -40.289062 C 34.285156 -39.851562 34.605469 -39.351562 34.84375 -38.792969 C 35.089844 -38.222656 35.210938 -37.710938 35.210938 -37.261719 C 35.210938 -36.734375 34.652344 -35.933594 33.535156 -34.859375 C 32.496094 -33.855469 28.3125 -31.25 20.984375 -27.042969 C 20.222656 -26.605469 19.347656 -26.132812 18.367188 -25.621094 Z M 15.390625 -24.109375 "/></g></g></g><g fill="#2fdfdf" fill-opacity="1"><g transform="translate(118.475914, 100.221699)"><g><path d="M -2.921875 -17.339844 C -3.6875 -17.339844 -4.441406 -17.519531 -5.179688 -17.878906 C -5.917969 -18.238281 -6.597656 -18.808594 -7.226562 -19.589844 C -8.5625 -21.273438 -9.234375 -23.546875 -9.234375 -26.410156 C -9.234375 -29.453125 -7.445312 -33.207031 -3.867188 -37.667969 C -0.445312 -41.929688 3.542969 -45.609375 8.097656 -48.703125 C 13.019531 -52.085938 17.265625 -53.773438 20.835938 -53.773438 C 24.09375 -53.773438 26.316406 -52.828125 27.5 -50.933594 L 28.257812 -49.746094 C 28.730469 -49.003906 29.160156 -48.632812 29.550781 -48.632812 C 30.113281 -48.632812 31 -48.6875 32.210938 -48.792969 L 39.902344 -49.335938 C 41.101562 -49.445312 42.054688 -49.5 42.753906 -49.5 C 43.53125 -49.5 44.398438 -49.234375 45.359375 -48.703125 C 46.296875 -48.1875 47.128906 -47.507812 47.855469 -46.667969 C 49.457031 -44.761719 50.257812 -42.664062 50.257812 -40.375 C 50.257812 -37.988281 47.730469 -34.347656 42.683594 -29.449219 L 39.117188 -25.878906 C 37.855469 -24.582031 36.90625 -23.523438 36.28125 -22.710938 C 35.710938 -21.972656 35.425781 -21.492188 35.425781 -21.269531 C 35.425781 -20.75 35.6875 -20.28125 36.207031 -19.859375 C 36.761719 -19.414062 37.355469 -19.191406 37.992188 -19.191406 C 38.679688 -19.191406 39.464844 -19.382812 40.355469 -19.769531 C 41.292969 -20.175781 42.457031 -20.78125 43.847656 -21.582031 C 45.25 -22.390625 46.847656 -23.371094 48.644531 -24.519531 C 53.574219 -27.761719 56.867188 -29.992188 58.519531 -31.210938 L 63.019531 -34.410156 C 66.175781 -36.640625 68.460938 -37.753906 69.867188 -37.753906 C 71.273438 -37.753906 72.433594 -37.445312 73.351562 -36.828125 C 74.335938 -36.164062 74.828125 -35.054688 74.828125 -33.5 C 74.828125 -32.03125 74.097656 -30.101562 72.640625 -27.710938 C 71.210938 -25.367188 69.664062 -23.335938 67.996094 -21.613281 C 66.347656 -19.910156 64.746094 -18.332031 63.1875 -16.882812 C 61.625 -15.429688 59.785156 -13.863281 57.664062 -12.175781 C 55.542969 -10.488281 53.195312 -8.785156 50.621094 -7.0625 C 48.039062 -5.335938 45.3125 -3.78125 42.4375 -2.398438 C 35.910156 0.773438 29.898438 2.359375 24.40625 2.359375 C 16.277344 2.359375 11.300781 0.214844 9.480469 -4.074219 C 8.910156 -5.363281 8.625 -6.800781 8.625 -8.386719 C 8.625 -9.960938 8.925781 -11.648438 9.519531 -13.449219 C 10.105469 -15.226562 10.875 -16.996094 11.828125 -18.757812 C 13.726562 -22.226562 15.976562 -25.296875 18.570312 -27.964844 C 19.640625 -29.085938 20.441406 -29.980469 20.972656 -30.644531 C 21.226562 -30.964844 21.417969 -31.226562 21.542969 -31.433594 C 21.59375 -31.519531 21.632812 -31.59375 21.65625 -31.652344 C 21.664062 -31.667969 21.667969 -31.683594 21.671875 -31.691406 C 21.671875 -31.6875 21.667969 -31.675781 21.667969 -31.660156 C 21.667969 -31.871094 21.617188 -32.035156 21.511719 -32.152344 C 21.390625 -32.289062 21.1875 -32.386719 20.90625 -32.453125 C 20.171875 -32.625 19.066406 -32.710938 17.589844 -32.710938 C 17.371094 -32.710938 16.957031 -32.503906 16.351562 -32.09375 C 15.675781 -31.640625 14.8125 -30.949219 13.765625 -30.027344 L 8.46875 -25.160156 C 2.742188 -19.949219 -1.054688 -17.339844 -2.921875 -17.339844 Z M -2.921875 -18.378906 C -2.164062 -18.378906 -0.910156 -18.988281 0.839844 -20.207031 C 2.660156 -21.476562 4.96875 -23.382812 7.765625 -25.925781 L 13.078125 -30.804688 C 15.304688 -32.769531 16.808594 -33.75 17.589844 -33.75 C 19.144531 -33.75 20.328125 -33.65625 21.144531 -33.464844 C 21.636719 -33.351562 22.019531 -33.144531 22.285156 -32.847656 C 22.566406 -32.53125 22.707031 -32.136719 22.707031 -31.660156 C 22.707031 -31.320312 22.398438 -30.765625 21.78125 -29.996094 C 21.234375 -29.308594 20.410156 -28.390625 19.316406 -27.238281 C 16.785156 -24.640625 14.59375 -21.648438 12.742188 -18.261719 C 11.820312 -16.558594 11.074219 -14.84375 10.503906 -13.125 C 9.945312 -11.425781 9.664062 -9.847656 9.664062 -8.386719 C 9.664062 -6.945312 9.921875 -5.644531 10.4375 -4.480469 C 12.078125 -0.613281 16.734375 1.320312 24.40625 1.320312 C 29.742188 1.320312 35.601562 -0.230469 41.988281 -3.335938 C 44.816406 -4.695312 47.5 -6.226562 50.042969 -7.925781 C 52.59375 -9.632812 54.917969 -11.320312 57.015625 -12.988281 C 59.117188 -14.660156 60.9375 -16.210938 62.480469 -17.644531 C 64.023438 -19.082031 65.613281 -20.644531 67.25 -22.335938 C 68.863281 -24.003906 70.367188 -25.972656 71.753906 -28.25 C 73.109375 -30.476562 73.789062 -32.226562 73.789062 -33.5 C 73.789062 -34.6875 73.449219 -35.507812 72.773438 -35.964844 C 72.03125 -36.464844 71.0625 -36.714844 69.867188 -36.714844 C 68.679688 -36.714844 66.597656 -35.664062 63.621094 -33.5625 L 59.136719 -30.375 C 57.46875 -29.144531 54.160156 -26.902344 49.203125 -23.644531 C 47.394531 -22.488281 45.78125 -21.5 44.367188 -20.683594 C 42.941406 -19.863281 41.742188 -19.238281 40.769531 -18.816406 C 39.746094 -18.375 38.820312 -18.152344 37.992188 -18.152344 C 37.113281 -18.152344 36.300781 -18.453125 35.554688 -19.050781 C 34.777344 -19.679688 34.386719 -20.417969 34.386719 -21.269531 C 34.386719 -21.730469 34.746094 -22.421875 35.457031 -23.34375 C 36.109375 -24.191406 37.085938 -25.28125 38.382812 -26.617188 L 41.960938 -30.191406 C 46.796875 -34.890625 49.214844 -38.28125 49.214844 -40.375 C 49.214844 -42.414062 48.5 -44.285156 47.070312 -45.988281 C 46.425781 -46.734375 45.6875 -47.335938 44.859375 -47.792969 C 44.050781 -48.238281 43.351562 -48.460938 42.753906 -48.460938 C 42.085938 -48.460938 41.160156 -48.40625 39.976562 -48.296875 L 32.300781 -47.757812 C 31.058594 -47.648438 30.140625 -47.59375 29.550781 -47.59375 C 28.78125 -47.59375 28.058594 -48.125 27.378906 -49.1875 L 26.621094 -50.382812 C 25.640625 -51.949219 23.710938 -52.734375 20.835938 -52.734375 C 17.480469 -52.734375 13.429688 -51.105469 8.679688 -47.84375 C 4.214844 -44.808594 0.300781 -41.199219 -3.058594 -37.019531 C -6.480469 -32.746094 -8.195312 -29.210938 -8.195312 -26.410156 C -8.195312 -23.789062 -7.601562 -21.734375 -6.414062 -20.242188 C -5.886719 -19.582031 -5.320312 -19.105469 -4.726562 -18.8125 C -4.128906 -18.523438 -3.527344 -18.378906 -2.921875 -18.378906 Z M -2.921875 -18.378906 "/></g></g></g><g fill="#2fdfdf" fill-opacity="1"><g transform="translate(180.661435, 100.221699)"><g><path d="M 60.753906 -29.0625 C 60.753906 -26.125 61.539062 -24.65625 63.105469 -24.65625 C 67.667969 -24.65625 73.652344 -27.792969 81.0625 -34.058594 L 82.542969 -35.324219 L 82.570312 -35.339844 C 85.578125 -37.347656 88.046875 -38.347656 89.972656 -38.347656 C 91.949219 -38.347656 93.234375 -38.023438 93.824219 -37.367188 C 94.402344 -36.726562 94.6875 -35.742188 94.6875 -34.421875 C 94.6875 -31.617188 93.289062 -28.667969 90.496094 -25.574219 L 90.109375 -25.921875 L 90.511719 -25.59375 C 86.433594 -20.644531 80.855469 -15.953125 73.769531 -11.519531 C 65.53125 -6.34375 58.132812 -3.757812 51.578125 -3.757812 C 49.191406 -3.757812 47.238281 -4.425781 45.726562 -5.765625 C 44.226562 -7.09375 43.175781 -9.066406 42.574219 -11.679688 C 42.246094 -12.996094 42.007812 -14.257812 41.859375 -15.46875 C 41.683594 -16.894531 41.5 -17.996094 41.316406 -18.78125 C 41.152344 -19.46875 41.019531 -19.859375 40.910156 -19.945312 C 40.8125 -20.027344 40.632812 -20.0625 40.371094 -20.054688 C 40.027344 -20.042969 39.585938 -19.949219 39.046875 -19.773438 C 37.902344 -19.40625 36.546875 -18.785156 34.96875 -17.917969 C 33.375 -17.039062 31.609375 -15.972656 29.667969 -14.71875 C 19.351562 -7.863281 13.414062 -3.945312 11.859375 -2.96875 C 8.054688 -0.605469 5.457031 0.574219 4.058594 0.574219 C 2.6875 0.574219 1.347656 0.289062 0.0351562 -0.28125 C -1.257812 -0.84375 -2.394531 -1.558594 -3.375 -2.425781 L -3.382812 -2.429688 L -3.386719 -2.4375 C -5.445312 -4.378906 -6.472656 -6.382812 -6.472656 -8.441406 C -6.472656 -19.46875 -4.066406 -29.117188 0.742188 -37.386719 C 3.972656 -43.003906 7.945312 -46.898438 12.664062 -49.070312 C 15.074219 -50.222656 17.671875 -50.796875 20.457031 -50.796875 C 23.03125 -50.796875 24.980469 -50.363281 26.304688 -49.492188 C 27.695312 -48.578125 28.390625 -47.21875 28.390625 -45.40625 C 28.390625 -43.335938 27.199219 -40.011719 24.816406 -35.425781 L 23.195312 -32.238281 C 22.621094 -31.140625 22.195312 -30.289062 21.917969 -29.675781 C 21.785156 -29.378906 21.6875 -29.140625 21.628906 -28.964844 C 21.601562 -28.890625 21.585938 -28.828125 21.574219 -28.78125 C 21.574219 -28.769531 21.570312 -28.761719 21.570312 -28.753906 C 21.570312 -28.765625 21.570312 -28.78125 21.566406 -28.800781 L 21.050781 -28.738281 L 21.5625 -28.839844 C 21.722656 -28.035156 22.039062 -27.632812 22.515625 -27.632812 C 23.226562 -27.632812 24.351562 -28.210938 25.882812 -29.367188 L 35.847656 -36.789062 L 40.839844 -40.261719 L 40.847656 -40.265625 C 46.671875 -44.074219 50.984375 -45.980469 53.796875 -45.980469 C 55.378906 -45.980469 56.816406 -45.355469 58.109375 -44.101562 C 60.414062 -41.910156 61.566406 -39.964844 61.566406 -38.261719 C 61.566406 -37.734375 61.519531 -37.101562 61.425781 -36.359375 L 61.128906 -34.03125 L 60.613281 -34.09375 L 61.132812 -34.050781 L 60.914062 -31.496094 L 60.914062 -31.488281 C 60.808594 -30.644531 60.753906 -29.835938 60.753906 -29.0625 Z M 59.714844 -29.0625 C 59.714844 -29.878906 59.773438 -30.730469 59.882812 -31.617188 L 60.398438 -31.550781 L 59.878906 -31.597656 L 60.097656 -34.152344 L 60.398438 -36.488281 C 60.484375 -37.1875 60.527344 -37.78125 60.527344 -38.261719 C 60.527344 -39.664062 59.480469 -41.363281 57.382812 -43.355469 C 56.292969 -44.414062 55.097656 -44.941406 53.796875 -44.941406 C 51.191406 -44.941406 47.066406 -43.09375 41.414062 -39.398438 L 41.132812 -39.832031 L 41.429688 -39.40625 L 36.449219 -35.941406 L 36.152344 -36.367188 L 36.460938 -35.953125 L 26.507812 -28.539062 C 24.792969 -27.242188 23.460938 -26.59375 22.515625 -26.59375 C 21.472656 -26.59375 20.816406 -27.273438 20.542969 -28.636719 L 20.539062 -28.65625 L 20.539062 -28.671875 C 20.507812 -28.914062 20.652344 -29.390625 20.972656 -30.101562 C 21.253906 -30.734375 21.6875 -31.601562 22.265625 -32.707031 L 23.894531 -35.90625 C 26.199219 -40.339844 27.351562 -43.507812 27.351562 -45.40625 C 27.351562 -46.84375 26.8125 -47.917969 25.734375 -48.625 C 24.582031 -49.378906 22.824219 -49.757812 20.457031 -49.757812 C 17.828125 -49.757812 15.375 -49.214844 13.097656 -48.128906 C 8.578125 -46.046875 4.761719 -42.292969 1.640625 -36.863281 C -3.074219 -28.753906 -5.433594 -19.28125 -5.433594 -8.441406 C -5.433594 -6.679688 -4.515625 -4.929688 -2.675781 -3.191406 L -3.03125 -2.8125 L -2.6875 -3.203125 C -1.789062 -2.410156 -0.742188 -1.753906 0.449219 -1.234375 C 1.628906 -0.722656 2.832031 -0.464844 4.058594 -0.464844 C 5.257812 -0.464844 7.675781 -1.59375 11.304688 -3.847656 C 12.851562 -4.820312 18.785156 -8.734375 29.105469 -15.589844 C 31.0625 -16.859375 32.851562 -17.9375 34.46875 -18.828125 C 36.101562 -19.730469 37.519531 -20.375 38.726562 -20.761719 C 40.078125 -21.199219 41.027344 -21.195312 41.570312 -20.75 C 41.859375 -20.515625 42.109375 -19.9375 42.328125 -19.019531 C 42.519531 -18.199219 42.707031 -17.058594 42.890625 -15.59375 C 43.035156 -14.425781 43.265625 -13.199219 43.585938 -11.914062 C 44.136719 -9.515625 45.082031 -7.726562 46.414062 -6.546875 C 47.730469 -5.378906 49.453125 -4.796875 51.578125 -4.796875 C 57.933594 -4.796875 65.148438 -7.332031 73.21875 -12.402344 C 80.207031 -16.773438 85.703125 -21.390625 89.707031 -26.253906 L 89.714844 -26.261719 L 89.722656 -26.273438 C 92.339844 -29.167969 93.648438 -31.882812 93.648438 -34.421875 C 93.648438 -35.476562 93.449219 -36.226562 93.050781 -36.671875 C 92.667969 -37.097656 91.640625 -37.308594 89.972656 -37.308594 C 88.257812 -37.308594 85.980469 -36.367188 83.144531 -34.476562 L 82.859375 -34.90625 L 83.195312 -34.511719 L 81.730469 -33.265625 C 74.128906 -26.835938 67.921875 -23.617188 63.105469 -23.617188 C 61.949219 -23.617188 61.082031 -24.113281 60.503906 -25.105469 C 59.980469 -26.007812 59.714844 -27.328125 59.714844 -29.0625 Z M 59.714844 -29.0625 "/></g></g></g><g fill="#2fdfdf" fill-opacity="1"><g transform="translate(261.301739, 100.221699)"><g><path d="M 94.007812 -41.164062 C 94.78125 -41.164062 95.363281 -40.835938 95.753906 -40.179688 C 96.089844 -39.609375 96.257812 -38.789062 96.257812 -37.722656 C 96.257812 -34.234375 93.871094 -29.773438 89.09375 -24.335938 L 89.082031 -24.324219 L 85.988281 -21.175781 C 76.589844 -11.777344 67.722656 -5.511719 59.390625 -2.382812 C 54.066406 -0.394531 50.207031 -0.519531 47.8125 -2.757812 C 45.898438 -4.597656 44.390625 -7.527344 43.28125 -11.550781 L 41.984375 -16.261719 L 42.484375 -16.398438 L 42.757812 -15.957031 L 31.222656 -8.863281 L 24.558594 -5.070312 C 16.535156 -0.695312 10.496094 1.492188 6.441406 1.492188 C 1.195312 1.492188 -3.175781 -0.53125 -6.671875 -4.585938 C -10.003906 -8.398438 -11.667969 -12.824219 -11.667969 -17.859375 C -11.667969 -22.839844 -9.6875 -27.273438 -5.722656 -31.164062 C -0.148438 -36.628906 8.625 -41.628906 20.597656 -46.164062 C 31.914062 -50.40625 41.070312 -52.527344 48.058594 -52.527344 C 49.375 -52.527344 50.375 -52.191406 51.0625 -51.515625 C 51.75 -50.835938 52.097656 -49.84375 52.097656 -48.546875 C 52.097656 -46.839844 51.753906 -45.542969 51.066406 -44.65625 C 50.398438 -43.792969 49.070312 -42.925781 47.074219 -42.0625 L 40.253906 -39.136719 C 30.207031 -34.941406 22.863281 -30.59375 18.222656 -26.089844 C 16.992188 -24.929688 16.375 -23.824219 16.375 -22.785156 C 16.375 -22.382812 16.535156 -22.082031 16.847656 -21.886719 C 17.242188 -21.640625 17.867188 -21.519531 18.726562 -21.519531 C 20.507812 -21.519531 24.785156 -23.515625 31.558594 -27.507812 L 36.050781 -30.160156 C 43.09375 -34.394531 49.007812 -36.507812 53.796875 -36.507812 C 58.003906 -36.507812 60.800781 -34.648438 62.183594 -30.921875 L 62.1875 -30.914062 L 62.1875 -30.910156 C 62.515625 -29.964844 62.824219 -29.011719 63.113281 -28.050781 C 63.398438 -27.105469 63.683594 -26.257812 63.96875 -25.511719 C 64.28125 -24.664062 64.570312 -24.035156 64.84375 -23.625 C 64.960938 -23.449219 65.066406 -23.324219 65.160156 -23.25 C 65.191406 -23.222656 65.21875 -23.207031 65.238281 -23.199219 L 65.242188 -23.195312 C 65.679688 -23.195312 66.34375 -23.4375 67.242188 -23.917969 C 68.199219 -24.433594 69.253906 -25.089844 70.414062 -25.890625 C 71.578125 -26.699219 72.789062 -27.585938 74.042969 -28.554688 L 80.585938 -33.796875 C 86.484375 -38.707031 90.957031 -41.164062 94.007812 -41.164062 Z M 94.007812 -40.125 C 91.210938 -40.125 86.953125 -37.746094 81.234375 -32.988281 L 74.679688 -27.730469 C 73.410156 -26.75 72.183594 -25.851562 71.003906 -25.035156 C 69.816406 -24.214844 68.726562 -23.535156 67.734375 -23.003906 C 66.683594 -22.4375 65.851562 -22.15625 65.242188 -22.15625 C 64.792969 -22.15625 64.371094 -22.457031 63.976562 -23.050781 C 63.660156 -23.527344 63.335938 -24.226562 62.996094 -25.144531 C 62.703125 -25.914062 62.410156 -26.78125 62.121094 -27.75 C 61.832031 -28.699219 61.527344 -29.640625 61.207031 -30.570312 L 61.695312 -30.738281 L 61.210938 -30.558594 C 59.996094 -33.832031 57.523438 -35.46875 53.796875 -35.46875 C 49.199219 -35.46875 43.460938 -33.402344 36.578125 -29.265625 L 32.085938 -26.613281 C 25.148438 -22.523438 20.695312 -20.480469 18.726562 -20.480469 C 17.671875 -20.480469 16.863281 -20.652344 16.300781 -21.003906 C 15.660156 -21.402344 15.335938 -21.996094 15.335938 -22.785156 C 15.335938 -24.125 16.058594 -25.476562 17.496094 -26.835938 C 22.234375 -31.429688 29.683594 -35.847656 39.84375 -40.09375 L 46.660156 -43.015625 C 48.492188 -43.808594 49.6875 -44.566406 50.246094 -45.292969 C 50.785156 -45.992188 51.058594 -47.078125 51.058594 -48.546875 C 51.058594 -49.554688 50.816406 -50.296875 50.332031 -50.773438 C 49.847656 -51.25 49.089844 -51.488281 48.058594 -51.488281 C 41.195312 -51.488281 32.164062 -49.390625 20.964844 -45.191406 C 9.128906 -40.707031 0.472656 -35.785156 -4.992188 -30.421875 C -8.75 -26.738281 -10.628906 -22.550781 -10.628906 -17.859375 C -10.628906 -13.082031 -9.046875 -8.882812 -5.882812 -5.265625 C -2.597656 -1.453125 1.511719 0.453125 6.441406 0.453125 C 10.320312 0.453125 16.1875 -1.6875 24.042969 -5.972656 L 30.699219 -9.761719 L 30.957031 -9.308594 L 30.683594 -9.75 L 42.800781 -17.203125 L 44.285156 -11.828125 C 45.339844 -7.988281 46.753906 -5.21875 48.523438 -3.519531 C 50.601562 -1.574219 54.101562 -1.519531 59.023438 -3.355469 C 67.21875 -6.429688 75.957031 -12.613281 85.246094 -21.902344 L 88.332031 -25.042969 L 88.703125 -24.679688 L 88.3125 -25.023438 C 92.917969 -30.261719 95.21875 -34.496094 95.21875 -37.722656 C 95.21875 -39.324219 94.816406 -40.125 94.007812 -40.125 Z M 94.007812 -40.125 "/></g></g></g></g></g></g></svg>