<svg xmlns="http://www.w3.org/2000/svg" xmlns:xlink="http://www.w3.org/1999/xlink" width="1000" zoomAndPan="magnify" viewBox="0 0 750 225" height="300" preserveAspectRatio="xMidYMid meet" version="1.0"><defs><g/><clipPath id="b46b0366cb"><rect x="0" width="728" y="0" height="225"/></clipPath></defs><g transform="matrix(1, 0, 0, 1, 20, -0.000000000000008531)"><g clip-path="url(#b46b0366cb)"><g fill="#2fdfdf" fill-opacity="1"><g transform="translate(14.574938, 202.858193)"><g><path d="M 128.5 -76.75 C 133.144531 -76.75 135.46875 -74.832031 135.46875 -71 C 135.46875 -66.28125 132.640625 -60.660156 126.984375 -54.140625 C 117.628906 -43.265625 106.613281 -32.679688 93.9375 -22.390625 C 73.28125 -5.867188 54.832031 2.390625 38.59375 2.390625 C 26.925781 2.390625 17.359375 -2.679688 9.890625 -12.828125 C 2.140625 -23.410156 -1.734375 -37.617188 -1.734375 -55.453125 C -1.734375 -78.859375 9.675781 -104.734375 32.5 -133.078125 C 47 -151.117188 60.664062 -163.363281 73.5 -169.8125 C 77.476562 -171.84375 80.535156 -172.859375 82.671875 -172.859375 C 84.816406 -172.859375 86.773438 -172.515625 88.546875 -171.828125 C 90.328125 -171.140625 91.976562 -170.179688 93.5 -168.953125 C 97.050781 -165.972656 98.828125 -162.378906 98.828125 -158.171875 C 98.828125 -153.972656 97.664062 -148.992188 95.34375 -143.234375 C 93.03125 -137.472656 89.660156 -131.332031 85.234375 -124.8125 C 75.878906 -110.96875 63.234375 -97.703125 47.296875 -85.015625 C 43.160156 -77.117188 41.09375 -67.625 41.09375 -56.53125 C 41.09375 -51.53125 42.6875 -46.820312 45.875 -42.40625 C 49.132812 -37.976562 52.722656 -35.765625 56.640625 -35.765625 C 62.003906 -35.765625 72.257812 -41.3125 87.40625 -52.40625 L 106.765625 -67.296875 C 114.660156 -73.597656 121.90625 -76.75 128.5 -76.75 Z M 128.5 -76.75 "/></g></g></g><g fill="#2fdfdf" fill-opacity="1"><g transform="translate(121.12502, 202.858193)"><g><path d="M 150.359375 -79.90625 C 153.835938 -79.90625 155.578125 -77.945312 155.578125 -74.03125 C 155.578125 -71.425781 154.6875 -68.144531 152.90625 -64.1875 C 151.132812 -60.238281 148.582031 -56.539062 145.25 -53.09375 C 141.914062 -49.65625 138.09375 -46.085938 133.78125 -42.390625 C 129.46875 -38.703125 124.429688 -34.828125 118.671875 -30.765625 C 112.910156 -26.703125 106.550781 -22.675781 99.59375 -18.6875 C 92.632812 -14.707031 85.238281 -11.125 77.40625 -7.9375 C 60.082031 -0.832031 43.304688 2.71875 27.078125 2.71875 C 14.679688 2.71875 3.84375 -0.503906 -5.4375 -6.953125 C -15.144531 -13.691406 -20 -21.882812 -20 -31.53125 C -20 -46.675781 -11.847656 -61.0625 4.453125 -74.6875 C 18.515625 -86.425781 35.078125 -95.523438 54.140625 -101.984375 C 65.734375 -105.890625 75.554688 -107.84375 83.609375 -107.84375 C 90.128906 -107.84375 95.632812 -106.25 100.125 -103.0625 C 104.914062 -99.582031 107.3125 -94.910156 107.3125 -89.046875 C 107.3125 -79.835938 100.023438 -69.648438 85.453125 -58.484375 C 83.128906 -56.671875 81.023438 -55.148438 79.140625 -53.921875 L 75.234375 -51.3125 C 67.984375 -46.238281 56.96875 -40.550781 42.1875 -34.25 C 46.75 -31.851562 51.003906 -30.65625 54.953125 -30.65625 C 58.898438 -30.65625 62.453125 -31.125 65.609375 -32.0625 C 68.765625 -33.007812 72.332031 -34.351562 76.3125 -36.09375 C 80.300781 -37.832031 84.5625 -39.914062 89.09375 -42.34375 C 93.625 -44.769531 98.207031 -47.4375 102.84375 -50.34375 C 113.207031 -56.789062 122.195312 -63.382812 129.8125 -70.125 C 133.800781 -73.820312 138.875 -76.757812 145.03125 -78.9375 C 147.0625 -79.582031 148.835938 -79.90625 150.359375 -79.90625 Z M 30.4375 -49.359375 L 36.421875 -52.40625 C 38.378906 -53.414062 40.117188 -54.359375 41.640625 -55.234375 C 56.273438 -63.640625 64.609375 -68.820312 66.640625 -70.78125 C 68.671875 -72.738281 69.6875 -74.097656 69.6875 -74.859375 C 69.6875 -75.617188 69.46875 -76.503906 69.03125 -77.515625 C 68.601562 -78.523438 68.023438 -79.429688 67.296875 -80.234375 C 65.554688 -82.265625 63.707031 -83.28125 61.75 -83.28125 C 59.789062 -83.28125 57.632812 -82.914062 55.28125 -82.1875 C 52.925781 -81.46875 50.550781 -80.472656 48.15625 -79.203125 C 45.769531 -77.929688 43.46875 -76.40625 41.25 -74.625 C 39.039062 -72.851562 37.101562 -70.953125 35.4375 -68.921875 C 31.601562 -64.359375 29.6875 -60.410156 29.6875 -57.078125 C 29.6875 -53.742188 29.9375 -51.171875 30.4375 -49.359375 Z M 30.4375 -49.359375 "/></g></g></g><g fill="#2fdfdf" fill-opacity="1"><g transform="translate(246.048826, 202.858193)"><g><path d="M -5.875 -35.875 C -7.25 -35.875 -8.601562 -36.195312 -9.9375 -36.84375 C -11.28125 -37.5 -12.535156 -38.554688 -13.703125 -40.015625 C -16.234375 -43.203125 -17.5 -47.550781 -17.5 -53.0625 C -17.5 -58.925781 -13.984375 -66.242188 -6.953125 -75.015625 C -0.140625 -83.492188 7.789062 -90.816406 16.84375 -96.984375 C 26.5625 -103.648438 34.898438 -106.984375 41.859375 -106.984375 C 48.015625 -106.984375 52.179688 -105.242188 54.359375 -101.765625 L 55.875 -99.375 C 57.039062 -97.5625 58.203125 -96.65625 59.359375 -96.65625 C 60.515625 -96.65625 62.328125 -96.765625 64.796875 -96.984375 L 80.234375 -98.0625 C 82.628906 -98.28125 84.515625 -98.390625 85.890625 -98.390625 C 87.265625 -98.390625 88.835938 -97.898438 90.609375 -96.921875 C 92.390625 -95.941406 93.96875 -94.65625 95.34375 -93.0625 C 98.382812 -89.4375 99.90625 -85.453125 99.90625 -81.109375 C 99.90625 -76.609375 94.941406 -69.539062 85.015625 -59.90625 L 77.84375 -52.734375 C 72.695312 -47.441406 70.125 -44.101562 70.125 -42.71875 C 70.125 -41.34375 70.773438 -40.128906 72.078125 -39.078125 C 73.378906 -38.035156 74.789062 -37.515625 76.3125 -37.515625 C 77.84375 -37.515625 79.566406 -37.929688 81.484375 -38.765625 C 83.398438 -39.597656 85.769531 -40.828125 88.59375 -42.453125 C 91.425781 -44.085938 94.65625 -46.0625 98.28125 -48.375 C 108.207031 -54.90625 114.835938 -59.398438 118.171875 -61.859375 L 127.203125 -68.28125 C 133.359375 -72.625 137.738281 -74.796875 140.34375 -74.796875 C 142.957031 -74.796875 145.097656 -74.234375 146.765625 -73.109375 C 148.429688 -71.984375 149.265625 -70.046875 149.265625 -67.296875 C 149.265625 -64.546875 147.851562 -60.847656 145.03125 -56.203125 C 142.207031 -51.566406 139.144531 -47.546875 135.84375 -44.140625 C 132.539062 -40.734375 129.332031 -37.578125 126.21875 -34.671875 C 123.101562 -31.773438 119.425781 -28.640625 115.1875 -25.265625 C 110.945312 -21.898438 106.253906 -18.492188 101.109375 -15.046875 C 95.960938 -11.609375 90.523438 -8.515625 84.796875 -5.765625 C 71.828125 0.546875 59.90625 3.703125 49.03125 3.703125 C 33.15625 3.703125 23.476562 -0.394531 20 -8.59375 C 18.914062 -11.050781 18.375 -13.800781 18.375 -16.84375 C 18.375 -19.894531 18.953125 -23.175781 20.109375 -26.6875 C 21.273438 -30.207031 22.796875 -33.707031 24.671875 -37.1875 C 28.441406 -44.070312 32.898438 -50.160156 38.046875 -55.453125 C 42.398438 -60.015625 44.578125 -62.726562 44.578125 -63.59375 C 44.578125 -64.976562 43.796875 -65.847656 42.234375 -66.203125 C 40.679688 -66.566406 38.378906 -66.75 35.328125 -66.75 C 34.023438 -66.75 31.238281 -64.863281 26.96875 -61.09375 L 16.3125 -51.3125 C 5 -41.019531 -2.394531 -35.875 -5.875 -35.875 Z M -5.875 -35.875 "/></g></g></g><g fill="#2fdfdf" fill-opacity="1"><g transform="translate(370.972631, 202.858193)"><g><path d="M 121 -58.375 C 121 -51.78125 122.921875 -48.484375 126.765625 -48.484375 C 136.191406 -48.484375 148.441406 -54.863281 163.515625 -67.625 L 166.453125 -70.125 C 172.316406 -74.039062 177.078125 -76 180.734375 -76 C 184.398438 -76 186.722656 -75.453125 187.703125 -74.359375 C 188.679688 -73.273438 189.171875 -71.535156 189.171875 -69.140625 C 189.171875 -63.773438 186.453125 -58.085938 181.015625 -52.078125 C 172.898438 -42.222656 161.773438 -32.875 147.640625 -24.03125 C 131.253906 -13.738281 116.578125 -8.59375 103.609375 -8.59375 C 94.546875 -8.59375 88.859375 -13.628906 86.546875 -23.703125 C 85.890625 -26.304688 85.414062 -28.804688 85.125 -31.203125 C 84.40625 -37.003906 83.644531 -40.226562 82.84375 -40.875 C 82.039062 -41.53125 80.460938 -41.476562 78.109375 -40.71875 C 75.753906 -39.957031 72.960938 -38.6875 69.734375 -36.90625 C 66.515625 -35.132812 62.945312 -32.976562 59.03125 -30.4375 C 38.300781 -16.664062 26.378906 -8.800781 23.265625 -6.84375 C 15.796875 -2.207031 10.753906 0.109375 8.140625 0.109375 C 5.535156 0.109375 2.984375 -0.429688 0.484375 -1.515625 C -2.015625 -2.609375 -4.207031 -3.988281 -6.09375 -5.65625 C -10 -9.351562 -11.953125 -13.117188 -11.953125 -16.953125 C -11.953125 -38.921875 -7.171875 -58.128906 2.390625 -74.578125 C 8.765625 -85.671875 16.59375 -93.351562 25.875 -97.625 C 30.582031 -99.875 35.65625 -101 41.09375 -101 C 51.019531 -101 55.984375 -97.738281 55.984375 -91.21875 C 55.984375 -87.226562 53.628906 -80.703125 48.921875 -71.640625 L 45.65625 -65.234375 C 43.34375 -60.804688 42.222656 -58.304688 42.296875 -57.734375 C 42.722656 -55.554688 43.703125 -54.46875 45.234375 -54.46875 C 46.898438 -54.46875 49.363281 -55.703125 52.625 -58.171875 L 72.625 -73.0625 L 82.625 -80.015625 C 94.144531 -87.554688 102.625 -91.328125 108.0625 -91.328125 C 110.96875 -91.328125 113.613281 -90.164062 116 -87.84375 C 120.425781 -83.644531 122.640625 -79.984375 122.640625 -76.859375 C 122.640625 -75.847656 122.546875 -74.617188 122.359375 -73.171875 C 122.179688 -71.722656 121.984375 -70.164062 121.765625 -68.5 L 121.328125 -63.390625 C 121.109375 -61.648438 121 -59.976562 121 -58.375 Z M 121 -58.375 "/></g></g></g><g fill="#2fdfdf" fill-opacity="1"><g transform="translate(532.970046, 202.858193)"><g><path d="M 188.84375 -81.640625 C 191.164062 -81.640625 192.328125 -79.6875 192.328125 -75.78125 C 192.328125 -69.039062 187.613281 -60.304688 178.1875 -49.578125 L 172 -43.265625 C 153.21875 -24.492188 135.53125 -11.992188 118.9375 -5.765625 C 108.644531 -1.921875 101.253906 -2.101562 96.765625 -6.3125 C 93.066406 -9.863281 90.128906 -15.585938 87.953125 -23.484375 L 85.34375 -32.9375 L 62.1875 -18.703125 L 48.8125 -11.09375 C 32.863281 -2.394531 20.90625 1.953125 12.9375 1.953125 C 2.71875 1.953125 -5.796875 -1.992188 -12.609375 -9.890625 C -19.128906 -17.359375 -22.390625 -26.019531 -22.390625 -35.875 C -22.390625 -45.59375 -18.515625 -54.253906 -10.765625 -61.859375 C 0.328125 -72.734375 17.832031 -82.703125 41.75 -91.765625 C 64.363281 -100.242188 82.628906 -104.484375 96.546875 -104.484375 C 101.253906 -104.484375 103.609375 -102.160156 103.609375 -97.515625 C 103.609375 -94.328125 102.988281 -91.9375 101.75 -90.34375 C 100.519531 -88.75 97.988281 -87.117188 94.15625 -85.453125 L 80.453125 -79.578125 C 60.160156 -71.097656 45.300781 -62.289062 35.875 -53.15625 C 33.195312 -50.625 31.859375 -48.160156 31.859375 -45.765625 C 31.859375 -43.378906 33.773438 -42.1875 37.609375 -42.1875 C 41.378906 -42.1875 50.148438 -46.242188 63.921875 -54.359375 L 72.953125 -59.6875 C 86.941406 -68.09375 98.644531 -72.296875 108.0625 -72.296875 C 116.039062 -72.296875 121.332031 -68.78125 123.9375 -61.75 C 124.59375 -59.863281 125.207031 -57.957031 125.78125 -56.03125 C 126.363281 -54.113281 126.945312 -52.394531 127.53125 -50.875 C 128.832031 -47.320312 130.007812 -45.546875 131.0625 -45.546875 C 132.113281 -45.546875 133.617188 -46.070312 135.578125 -47.125 C 137.535156 -48.175781 139.691406 -49.515625 142.046875 -51.140625 C 144.398438 -52.773438 146.84375 -54.570312 149.375 -56.53125 L 162.53125 -67.078125 C 174.195312 -76.785156 182.96875 -81.640625 188.84375 -81.640625 Z M 188.84375 -81.640625 "/></g></g></g><g fill="#2fdfdf" fill-opacity="1"><g transform="translate(4.953277, 201.334273)"><g><path d="M 128.507812 -77.800781 C 131.078125 -77.800781 133.039062 -77.242188 134.394531 -76.121094 C 135.804688 -74.953125 136.511719 -73.242188 136.511719 -70.996094 C 136.511719 -66.023438 133.597656 -60.179688 127.773438 -53.460938 C 118.386719 -42.542969 107.324219 -31.917969 94.59375 -21.585938 C 73.742188 -4.90625 55.074219 3.4375 38.597656 3.4375 C 26.574219 3.4375 16.726562 -1.78125 9.054688 -12.210938 C 1.164062 -22.976562 -2.785156 -37.390625 -2.785156 -55.449219 C -2.785156 -79.105469 8.710938 -105.199219 31.695312 -133.730469 C 46.285156 -151.894531 60.0625 -164.234375 73.027344 -170.753906 C 77.160156 -172.859375 80.378906 -173.910156 82.683594 -173.910156 C 84.949219 -173.910156 87.035156 -173.542969 88.929688 -172.808594 C 90.808594 -172.078125 92.550781 -171.066406 94.15625 -169.765625 C 97.964844 -166.578125 99.871094 -162.71875 99.871094 -158.1875 C 99.871094 -153.851562 98.6875 -148.738281 96.316406 -142.851562 C 93.96875 -137.019531 90.5625 -130.8125 86.101562 -124.226562 C 76.691406 -110.292969 63.972656 -96.953125 47.945312 -84.203125 L 47.292969 -85.019531 L 48.21875 -84.535156 C 44.167969 -76.789062 42.140625 -67.453125 42.140625 -56.535156 C 42.140625 -51.757812 43.667969 -47.25 46.726562 -43.011719 C 49.777344 -38.878906 53.082031 -36.8125 56.644531 -36.8125 C 61.78125 -36.8125 71.832031 -42.289062 86.796875 -53.246094 L 87.410156 -52.402344 L 86.773438 -53.230469 L 106.128906 -68.125 C 114.207031 -74.574219 121.667969 -77.800781 128.507812 -77.800781 Z M 128.507812 -75.714844 C 122.15625 -75.714844 115.121094 -72.632812 107.402344 -66.472656 L 88.039062 -51.570312 L 88.027344 -51.5625 C 72.695312 -40.335938 62.234375 -34.726562 56.644531 -34.726562 C 52.378906 -34.726562 48.507812 -37.082031 45.035156 -41.789062 C 41.714844 -46.394531 40.054688 -51.308594 40.054688 -56.535156 C 40.054688 -67.796875 42.15625 -77.453125 46.367188 -85.503906 L 46.472656 -85.699219 L 46.644531 -85.835938 C 62.507812 -98.453125 75.082031 -111.640625 84.375 -125.398438 C 88.753906 -131.859375 92.089844 -137.9375 94.378906 -143.628906 C 96.648438 -149.265625 97.785156 -154.121094 97.785156 -158.1875 C 97.785156 -162.066406 96.136719 -165.386719 92.84375 -168.140625 C 91.40625 -169.304688 89.851562 -170.210938 88.175781 -170.859375 C 86.523438 -171.503906 84.691406 -171.824219 82.683594 -171.824219 C 80.710938 -171.824219 77.804688 -170.84375 73.964844 -168.890625 C 61.269531 -162.507812 47.722656 -150.351562 33.320312 -132.417969 C 10.644531 -104.269531 -0.695312 -78.613281 -0.695312 -55.449219 C -0.695312 -37.84375 3.113281 -23.84375 10.734375 -13.449219 C 17.992188 -3.582031 27.277344 1.347656 38.597656 1.347656 C 54.585938 1.347656 72.816406 -6.835938 93.277344 -23.207031 C 105.914062 -33.460938 116.886719 -44 126.199219 -54.828125 C 131.679688 -61.152344 134.421875 -66.542969 134.421875 -70.996094 C 134.421875 -72.589844 133.96875 -73.761719 133.0625 -74.511719 C 132.09375 -75.3125 130.578125 -75.714844 128.507812 -75.714844 Z M 128.507812 -75.714844 "/></g></g></g><g fill="#2fdfdf" fill-opacity="1"><g transform="translate(111.50336, 201.334273)"><g><path d="M 150.363281 -80.953125 C 152.414062 -80.953125 153.976562 -80.347656 155.054688 -79.136719 C 156.101562 -77.960938 156.625 -76.261719 156.625 -74.039062 C 156.625 -71.28125 155.707031 -67.859375 153.867188 -63.773438 C 152.042969 -59.710938 149.421875 -55.914062 146 -52.382812 C 142.644531 -48.917969 138.796875 -45.328125 134.460938 -41.609375 C 130.121094 -37.890625 125.058594 -33.992188 119.269531 -29.914062 C 113.480469 -25.835938 107.09375 -21.796875 100.109375 -17.792969 C 93.109375 -13.785156 85.675781 -10.175781 77.804688 -6.96875 C 60.355469 0.183594 43.445312 3.761719 27.070312 3.761719 C 14.460938 3.761719 3.425781 0.472656 -6.03125 -6.101562 C -16.042969 -13.050781 -21.046875 -21.523438 -21.046875 -31.527344 C -21.046875 -47.003906 -12.769531 -61.65625 3.789062 -75.492188 C 17.949219 -87.316406 34.621094 -96.476562 53.808594 -102.96875 C 65.515625 -106.917969 75.445312 -108.894531 83.605469 -108.894531 C 90.351562 -108.894531 96.0625 -107.238281 100.734375 -103.917969 C 105.8125 -100.226562 108.351562 -95.269531 108.351562 -89.042969 C 108.351562 -79.492188 100.929688 -69.035156 86.089844 -57.664062 C 83.753906 -55.835938 81.628906 -54.300781 79.71875 -53.050781 L 75.8125 -50.449219 L 75.234375 -51.316406 L 75.832031 -50.460938 C 68.527344 -45.347656 57.445312 -39.621094 42.59375 -33.285156 L 42.183594 -34.246094 L 42.667969 -35.171875 C 47.082031 -32.859375 51.179688 -31.703125 54.957031 -31.703125 C 58.808594 -31.703125 62.257812 -32.160156 65.3125 -33.074219 C 68.425781 -34.003906 71.957031 -35.328125 75.90625 -37.050781 C 79.867188 -38.78125 84.097656 -40.851562 88.605469 -43.265625 C 93.113281 -45.683594 97.679688 -48.335938 102.296875 -51.222656 C 112.613281 -57.644531 121.554688 -64.203125 129.121094 -70.90625 L 129.8125 -70.125 L 129.101562 -70.890625 C 133.195312 -74.683594 138.390625 -77.695312 144.6875 -79.914062 L 144.699219 -79.921875 L 144.714844 -79.925781 C 146.847656 -80.609375 148.730469 -80.953125 150.363281 -80.953125 Z M 150.363281 -78.867188 C 148.949219 -78.867188 147.277344 -78.558594 145.351562 -77.9375 L 145.035156 -78.929688 L 145.382812 -77.949219 C 139.355469 -75.820312 134.402344 -72.957031 130.523438 -69.359375 L 130.515625 -69.351562 L 130.503906 -69.34375 C 122.851562 -62.5625 113.816406 -55.933594 103.402344 -49.453125 C 98.746094 -46.542969 94.140625 -43.867188 89.589844 -41.425781 C 85.035156 -38.984375 80.75 -36.890625 76.738281 -35.140625 C 72.714844 -33.382812 69.105469 -32.027344 65.910156 -31.074219 C 62.660156 -30.101562 59.011719 -29.617188 54.957031 -29.617188 C 50.835938 -29.617188 46.417969 -30.851562 41.699219 -33.324219 L 39.75 -34.34375 L 41.773438 -35.207031 C 56.492188 -41.484375 67.449219 -47.140625 74.636719 -52.171875 L 74.644531 -52.179688 L 78.578125 -54.800781 C 80.4375 -56.015625 82.519531 -57.523438 84.820312 -59.320312 C 99.117188 -70.273438 106.265625 -80.179688 106.265625 -89.042969 C 106.265625 -94.558594 104.019531 -98.949219 99.527344 -102.214844 C 95.214844 -105.277344 89.90625 -106.808594 83.605469 -106.808594 C 75.675781 -106.808594 65.964844 -104.867188 54.476562 -100.992188 C 35.539062 -94.582031 19.089844 -85.550781 5.125 -73.890625 C -10.933594 -60.472656 -18.960938 -46.351562 -18.960938 -31.527344 C -18.960938 -22.253906 -14.253906 -14.347656 -4.839844 -7.816406 C 4.257812 -1.488281 14.894531 1.675781 27.070312 1.675781 C 43.171875 1.675781 59.816406 -1.851562 77.015625 -8.902344 C 84.800781 -12.074219 92.152344 -15.640625 99.070312 -19.605469 C 106 -23.574219 112.332031 -27.582031 118.066406 -31.621094 C 123.804688 -35.660156 128.816406 -39.519531 133.101562 -43.195312 C 137.390625 -46.871094 141.191406 -50.417969 144.5 -53.835938 C 147.75 -57.191406 150.238281 -60.789062 151.964844 -64.628906 C 153.679688 -68.441406 154.535156 -71.578125 154.535156 -74.039062 C 154.535156 -75.730469 154.1875 -76.96875 153.496094 -77.75 C 152.832031 -78.492188 151.789062 -78.867188 150.363281 -78.867188 Z M 29.96875 -50.289062 L 35.949219 -53.332031 C 37.886719 -54.339844 39.613281 -55.273438 41.121094 -56.136719 C 55.6875 -64.5 63.953125 -69.632812 65.921875 -71.527344 C 66.894531 -72.46875 67.621094 -73.253906 68.09375 -73.890625 C 68.460938 -74.382812 68.648438 -74.707031 68.648438 -74.855469 C 68.648438 -75.472656 68.457031 -76.222656 68.078125 -77.105469 C 67.691406 -78.015625 67.171875 -78.824219 66.527344 -79.535156 L 66.515625 -79.546875 L 66.507812 -79.558594 C 64.976562 -81.34375 63.390625 -82.238281 61.753906 -82.238281 C 59.902344 -82.238281 57.847656 -81.890625 55.589844 -81.195312 C 53.300781 -80.488281 50.984375 -79.519531 48.652344 -78.28125 C 46.320312 -77.042969 44.074219 -75.558594 41.914062 -73.824219 C 39.757812 -72.09375 37.871094 -70.242188 36.25 -68.265625 C 32.566406 -63.886719 30.726562 -60.160156 30.726562 -57.078125 C 30.726562 -53.839844 30.964844 -51.359375 31.445312 -49.640625 L 30.441406 -49.359375 Z M 30.914062 -48.429688 L 29.78125 -47.851562 L 29.4375 -49.078125 C 28.902344 -50.980469 28.636719 -53.648438 28.636719 -57.078125 C 28.636719 -60.667969 30.636719 -64.835938 34.636719 -69.589844 C 36.347656 -71.675781 38.339844 -73.628906 40.605469 -75.449219 C 42.867188 -77.269531 45.222656 -78.824219 47.675781 -80.125 C 50.125 -81.425781 52.558594 -82.445312 54.976562 -83.191406 C 57.433594 -83.945312 59.691406 -84.324219 61.753906 -84.324219 C 64.03125 -84.324219 66.144531 -83.1875 68.089844 -80.914062 L 67.296875 -80.234375 L 68.070312 -80.9375 C 68.875 -80.054688 69.515625 -79.050781 69.996094 -77.929688 C 70.488281 -76.785156 70.734375 -75.757812 70.734375 -74.855469 C 70.734375 -73.796875 69.613281 -72.1875 67.371094 -70.027344 C 65.277344 -68.007812 56.875 -62.777344 42.15625 -54.324219 C 40.625 -53.449219 38.871094 -52.496094 36.894531 -51.472656 Z M 30.914062 -48.429688 "/></g></g></g><g fill="#2fdfdf" fill-opacity="1"><g transform="translate(236.427166, 201.334273)"><g><path d="M -5.871094 -34.835938 C -7.410156 -34.835938 -8.917969 -35.195312 -10.40625 -35.917969 C -11.886719 -36.640625 -13.257812 -37.785156 -14.515625 -39.355469 C -17.203125 -42.738281 -18.546875 -47.304688 -18.546875 -53.054688 C -18.546875 -59.171875 -14.957031 -66.710938 -7.773438 -75.671875 C -0.894531 -84.230469 7.117188 -91.621094 16.265625 -97.84375 C 26.152344 -104.632812 34.683594 -108.023438 41.859375 -108.023438 C 48.402344 -108.023438 52.867188 -106.121094 55.246094 -102.316406 L 56.761719 -99.929688 C 57.714844 -98.441406 58.582031 -97.695312 59.363281 -97.695312 C 60.492188 -97.695312 62.273438 -97.804688 64.707031 -98.019531 L 80.164062 -99.109375 C 82.570312 -99.328125 84.480469 -99.4375 85.890625 -99.4375 C 87.445312 -99.4375 89.191406 -98.902344 91.121094 -97.839844 C 93.007812 -96.800781 94.679688 -95.4375 96.136719 -93.746094 C 99.351562 -89.921875 100.957031 -85.707031 100.957031 -81.105469 C 100.957031 -76.316406 95.886719 -69 85.746094 -59.15625 L 78.582031 -51.992188 C 76.042969 -49.382812 74.144531 -47.257812 72.882812 -45.625 C 71.738281 -44.144531 71.167969 -43.179688 71.167969 -42.726562 C 71.167969 -41.683594 71.691406 -40.738281 72.738281 -39.898438 C 73.851562 -39 75.046875 -38.550781 76.324219 -38.550781 C 77.699219 -38.550781 79.28125 -38.941406 81.070312 -39.714844 C 82.957031 -40.535156 85.292969 -41.75 88.085938 -43.359375 C 90.898438 -44.984375 94.109375 -46.949219 97.722656 -49.261719 C 107.628906 -55.769531 114.242188 -60.25 117.558594 -62.703125 L 126.597656 -69.128906 C 132.941406 -73.605469 137.527344 -75.84375 140.359375 -75.84375 C 143.179688 -75.84375 145.511719 -75.222656 147.355469 -73.980469 C 149.332031 -72.648438 150.316406 -70.421875 150.316406 -67.296875 C 150.316406 -64.347656 148.855469 -60.472656 145.925781 -55.664062 C 143.058594 -50.960938 139.949219 -46.878906 136.597656 -43.414062 C 133.285156 -39.996094 130.066406 -36.828125 126.9375 -33.917969 C 123.800781 -31 120.101562 -27.847656 115.839844 -24.460938 C 111.578125 -21.074219 106.859375 -17.648438 101.691406 -14.191406 C 96.503906 -10.71875 91.023438 -7.597656 85.253906 -4.820312 C 72.140625 1.554688 60.066406 4.742188 49.035156 4.742188 C 32.699219 4.742188 22.703125 0.433594 19.042969 -8.179688 C 17.902344 -10.769531 17.332031 -13.660156 17.332031 -16.851562 C 17.332031 -20.007812 17.925781 -23.398438 19.121094 -27.019531 C 20.300781 -30.59375 21.847656 -34.144531 23.761719 -37.679688 C 27.578125 -44.652344 32.09375 -50.816406 37.304688 -56.175781 C 39.453125 -58.429688 41.0625 -60.226562 42.128906 -61.5625 C 42.644531 -62.207031 43.027344 -62.734375 43.273438 -63.144531 C 43.382812 -63.320312 43.460938 -63.46875 43.507812 -63.582031 C 43.523438 -63.621094 43.53125 -63.648438 43.535156 -63.667969 C 43.535156 -63.652344 43.53125 -63.632812 43.53125 -63.601562 C 43.53125 -64.023438 43.425781 -64.355469 43.214844 -64.589844 C 42.972656 -64.863281 42.566406 -65.0625 42 -65.195312 C 40.519531 -65.539062 38.296875 -65.710938 35.335938 -65.710938 C 34.894531 -65.710938 34.066406 -65.300781 32.847656 -64.476562 C 31.488281 -63.558594 29.757812 -62.171875 27.652344 -60.316406 L 17.015625 -50.546875 C 5.503906 -40.070312 -2.121094 -34.835938 -5.871094 -34.835938 Z M -5.871094 -36.921875 C -4.351562 -36.921875 -1.832031 -38.144531 1.6875 -40.59375 C 5.347656 -43.140625 9.984375 -46.972656 15.601562 -52.085938 L 26.273438 -61.882812 C 30.746094 -65.828125 33.765625 -67.796875 35.335938 -67.796875 C 38.457031 -67.796875 40.839844 -67.609375 42.472656 -67.226562 C 43.46875 -66.996094 44.234375 -66.582031 44.769531 -65.984375 C 45.335938 -65.351562 45.621094 -64.554688 45.621094 -63.601562 C 45.621094 -62.921875 45 -61.808594 43.761719 -60.257812 C 42.652344 -58.875 41 -57.03125 38.800781 -54.71875 C 33.71875 -49.496094 29.320312 -43.484375 25.597656 -36.683594 C 23.742188 -33.261719 22.246094 -29.820312 21.105469 -26.363281 C 19.980469 -22.953125 19.417969 -19.785156 19.417969 -16.851562 C 19.417969 -13.953125 19.933594 -11.335938 20.964844 -8.996094 C 24.265625 -1.230469 33.621094 2.652344 49.035156 2.652344 C 59.746094 2.652344 71.515625 -0.464844 84.351562 -6.703125 C 90.03125 -9.4375 95.425781 -12.511719 100.53125 -15.925781 C 105.652344 -19.351562 110.324219 -22.742188 114.539062 -26.09375 C 118.757812 -29.449219 122.417969 -32.566406 125.515625 -35.445312 C 128.617188 -38.332031 131.8125 -41.472656 135.097656 -44.867188 C 138.339844 -48.21875 141.355469 -52.179688 144.144531 -56.753906 C 146.867188 -61.222656 148.230469 -64.738281 148.230469 -67.296875 C 148.230469 -69.683594 147.550781 -71.332031 146.191406 -72.25 C 144.699219 -73.253906 142.753906 -73.757812 140.359375 -73.757812 C 137.96875 -73.757812 133.785156 -71.644531 127.808594 -67.425781 L 118.800781 -61.023438 C 115.449219 -58.546875 108.800781 -54.039062 98.847656 -47.5 C 95.210938 -45.171875 91.96875 -43.191406 89.128906 -41.550781 C 86.269531 -39.902344 83.859375 -38.652344 81.902344 -37.800781 C 79.847656 -36.910156 77.988281 -36.464844 76.324219 -36.464844 C 74.554688 -36.464844 72.921875 -37.066406 71.425781 -38.273438 C 69.863281 -39.53125 69.082031 -41.015625 69.082031 -42.726562 C 69.082031 -43.652344 69.796875 -45.042969 71.230469 -46.898438 C 72.539062 -48.597656 74.5 -50.785156 77.105469 -53.46875 L 84.292969 -60.652344 C 94.011719 -70.089844 98.871094 -76.90625 98.871094 -81.105469 C 98.871094 -85.203125 97.433594 -88.960938 94.558594 -92.382812 C 93.261719 -93.882812 91.78125 -95.09375 90.117188 -96.011719 C 88.496094 -96.902344 87.085938 -97.347656 85.890625 -97.347656 C 84.542969 -97.347656 82.683594 -97.242188 80.308594 -97.023438 L 64.890625 -95.941406 C 62.394531 -95.71875 60.550781 -95.609375 59.363281 -95.609375 C 57.820312 -95.609375 56.367188 -96.675781 55.003906 -98.8125 L 53.476562 -101.210938 C 51.503906 -104.363281 47.632812 -105.9375 41.859375 -105.9375 C 35.117188 -105.9375 26.976562 -102.664062 17.4375 -96.117188 C 8.464844 -90.015625 0.605469 -82.761719 -6.144531 -74.363281 C -13.023438 -65.785156 -16.460938 -58.683594 -16.460938 -53.054688 C -16.460938 -47.789062 -15.269531 -43.660156 -12.882812 -40.660156 C -11.820312 -39.335938 -10.691406 -38.378906 -9.492188 -37.796875 C -8.292969 -37.210938 -7.085938 -36.921875 -5.871094 -36.921875 Z M -5.871094 -36.921875 "/></g></g></g><g fill="#2fdfdf" fill-opacity="1"><g transform="translate(361.350971, 201.334273)"><g><path d="M 122.050781 -58.382812 C 122.050781 -52.484375 123.625 -49.535156 126.769531 -49.535156 C 135.9375 -49.535156 147.960938 -55.828125 162.84375 -68.421875 L 165.820312 -70.960938 L 165.875 -70.992188 C 171.917969 -75.023438 176.878906 -77.039062 180.75 -77.039062 C 184.71875 -77.039062 187.296875 -76.382812 188.484375 -75.0625 C 189.640625 -73.777344 190.21875 -71.804688 190.21875 -69.148438 C 190.21875 -63.515625 187.410156 -57.59375 181.796875 -51.378906 L 181.019531 -52.078125 L 181.828125 -51.414062 C 173.636719 -41.46875 162.425781 -32.046875 148.195312 -23.140625 C 131.648438 -12.746094 116.785156 -7.546875 103.609375 -7.546875 C 98.816406 -7.546875 94.898438 -8.890625 91.855469 -11.585938 C 88.84375 -14.253906 86.734375 -18.210938 85.523438 -23.46875 C 84.863281 -26.105469 84.386719 -28.640625 84.09375 -31.078125 C 83.734375 -33.9375 83.371094 -36.15625 83 -37.730469 C 82.671875 -39.113281 82.402344 -39.894531 82.183594 -40.070312 C 81.988281 -40.230469 81.628906 -40.300781 81.101562 -40.285156 C 80.410156 -40.261719 79.523438 -40.074219 78.4375 -39.722656 C 76.144531 -38.980469 73.414062 -37.738281 70.246094 -35.996094 C 67.042969 -34.234375 63.496094 -32.089844 59.601562 -29.566406 C 38.871094 -15.792969 26.945312 -7.925781 23.820312 -5.964844 C 16.183594 -1.21875 10.960938 1.152344 8.152344 1.152344 C 5.398438 1.152344 2.707031 0.578125 0.0742188 -0.566406 C -2.527344 -1.695312 -4.8125 -3.132812 -6.78125 -4.871094 L -6.804688 -4.894531 C -10.9375 -8.796875 -13.003906 -12.820312 -13.003906 -16.960938 C -13.003906 -39.109375 -8.171875 -58.492188 1.488281 -75.105469 C 7.976562 -86.386719 15.960938 -94.210938 25.4375 -98.578125 C 30.285156 -100.890625 35.503906 -102.046875 41.097656 -102.046875 C 46.269531 -102.046875 50.183594 -101.171875 52.839844 -99.429688 C 55.636719 -97.589844 57.035156 -94.855469 57.035156 -91.21875 C 57.035156 -87.058594 54.640625 -80.375 49.851562 -71.164062 L 46.59375 -64.757812 C 45.4375 -62.558594 44.585938 -60.84375 44.03125 -59.613281 C 43.765625 -59.019531 43.570312 -58.542969 43.449219 -58.1875 C 43.398438 -58.035156 43.363281 -57.914062 43.34375 -57.820312 C 43.335938 -57.792969 43.332031 -57.773438 43.332031 -57.765625 C 43.335938 -57.789062 43.332031 -57.820312 43.328125 -57.859375 L 42.292969 -57.730469 L 43.316406 -57.9375 C 43.640625 -56.320312 44.277344 -55.511719 45.226562 -55.511719 C 46.660156 -55.511719 48.917969 -56.675781 51.992188 -59 L 72.015625 -73.90625 L 82.042969 -80.882812 L 82.058594 -80.890625 C 93.753906 -88.542969 102.425781 -92.371094 108.070312 -92.371094 C 111.25 -92.371094 114.136719 -91.113281 116.730469 -88.597656 C 121.363281 -84.191406 123.679688 -80.28125 123.679688 -76.867188 C 123.679688 -75.808594 123.589844 -74.53125 123.402344 -73.039062 L 122.804688 -68.363281 L 121.769531 -68.496094 L 122.808594 -68.40625 L 122.371094 -63.277344 L 122.367188 -63.253906 C 122.15625 -61.558594 122.050781 -59.933594 122.050781 -58.382812 Z M 119.964844 -58.382812 C 119.964844 -60.019531 120.074219 -61.730469 120.296875 -63.515625 L 121.332031 -63.382812 L 120.292969 -63.472656 L 120.730469 -68.605469 L 121.328125 -73.296875 C 121.503906 -74.707031 121.59375 -75.894531 121.59375 -76.867188 C 121.59375 -79.683594 119.488281 -83.09375 115.277344 -87.097656 C 113.089844 -89.21875 110.6875 -90.28125 108.070312 -90.28125 C 102.839844 -90.28125 94.550781 -86.570312 83.199219 -79.144531 L 82.628906 -80.019531 L 83.222656 -79.160156 L 73.222656 -72.203125 L 72.625 -73.0625 L 73.25 -72.222656 L 53.25 -57.332031 C 49.800781 -54.726562 47.128906 -53.425781 45.226562 -53.425781 C 43.136719 -53.425781 41.816406 -54.792969 41.269531 -57.527344 L 41.261719 -57.5625 L 41.257812 -57.601562 C 41.195312 -58.085938 41.488281 -59.039062 42.128906 -60.46875 C 42.699219 -61.738281 43.566406 -63.484375 44.734375 -65.707031 L 48 -72.128906 C 52.632812 -81.039062 54.949219 -87.402344 54.949219 -91.21875 C 54.949219 -94.101562 53.863281 -96.257812 51.695312 -97.683594 C 49.386719 -99.199219 45.851562 -99.957031 41.097656 -99.957031 C 35.816406 -99.957031 30.890625 -98.867188 26.3125 -96.683594 C 17.238281 -92.5 9.5625 -84.957031 3.292969 -74.058594 C -6.179688 -57.765625 -10.914062 -38.734375 -10.914062 -16.960938 C -10.914062 -13.417969 -9.066406 -9.902344 -5.371094 -6.414062 L -6.089844 -5.652344 L -5.398438 -6.433594 C -3.59375 -4.839844 -1.492188 -3.523438 0.90625 -2.480469 C 3.273438 -1.449219 5.691406 -0.933594 8.152344 -0.933594 C 10.566406 -0.933594 15.417969 -3.199219 22.710938 -7.734375 C 25.820312 -9.6875 37.738281 -17.546875 58.46875 -31.316406 C 62.402344 -33.867188 65.992188 -36.039062 69.242188 -37.824219 C 72.523438 -39.632812 75.375 -40.929688 77.796875 -41.710938 C 80.511719 -42.585938 82.414062 -42.578125 83.507812 -41.6875 C 84.085938 -41.210938 84.59375 -40.050781 85.03125 -38.210938 C 85.417969 -36.5625 85.796875 -34.265625 86.164062 -31.328125 C 86.449219 -28.980469 86.914062 -26.515625 87.558594 -23.933594 C 88.667969 -19.113281 90.5625 -15.519531 93.242188 -13.148438 C 95.886719 -10.804688 99.34375 -9.632812 103.609375 -9.632812 C 116.386719 -9.632812 130.878906 -14.726562 147.089844 -24.914062 C 161.128906 -33.695312 172.167969 -42.972656 180.214844 -52.742188 L 180.230469 -52.757812 L 180.246094 -52.777344 C 185.503906 -58.59375 188.132812 -64.050781 188.132812 -69.148438 C 188.132812 -71.273438 187.730469 -72.777344 186.929688 -73.667969 C 186.160156 -74.523438 184.097656 -74.953125 180.75 -74.953125 C 177.300781 -74.953125 172.726562 -73.054688 167.03125 -69.257812 L 166.453125 -70.125 L 167.128906 -69.332031 L 164.191406 -66.828125 C 148.921875 -53.90625 136.445312 -47.445312 126.769531 -47.445312 C 124.449219 -47.445312 122.707031 -48.441406 121.546875 -50.4375 C 120.492188 -52.25 119.964844 -54.898438 119.964844 -58.382812 Z M 119.964844 -58.382812 "/></g></g></g><g fill="#2fdfdf" fill-opacity="1"><g transform="translate(523.348386, 201.334273)"><g><path d="M 188.847656 -82.691406 C 190.40625 -82.691406 191.574219 -82.035156 192.355469 -80.714844 C 193.03125 -79.570312 193.371094 -77.925781 193.371094 -75.777344 C 193.371094 -68.777344 188.574219 -59.8125 178.976562 -48.886719 L 178.957031 -48.867188 L 172.742188 -42.539062 C 153.859375 -23.65625 136.046875 -11.070312 119.308594 -4.785156 C 108.609375 -0.792969 100.859375 -1.046875 96.046875 -5.542969 C 92.207031 -9.234375 89.175781 -15.121094 86.949219 -23.207031 L 84.339844 -32.664062 L 85.347656 -32.941406 L 85.894531 -32.054688 L 62.71875 -17.800781 L 49.332031 -10.183594 C 33.21875 -1.394531 21.089844 3 12.9375 3 C 2.398438 3 -6.378906 -1.070312 -13.402344 -9.210938 C -20.09375 -16.871094 -23.441406 -25.757812 -23.441406 -35.878906 C -23.441406 -45.882812 -19.457031 -54.792969 -11.496094 -62.605469 C -0.300781 -73.582031 17.324219 -83.625 41.378906 -92.738281 C 64.113281 -101.261719 82.5 -105.523438 96.542969 -105.523438 C 99.183594 -105.523438 101.195312 -104.84375 102.578125 -103.484375 C 103.960938 -102.121094 104.65625 -100.132812 104.65625 -97.523438 C 104.65625 -94.097656 103.964844 -91.492188 102.589844 -89.710938 C 101.246094 -87.972656 98.574219 -86.234375 94.566406 -84.496094 L 80.863281 -78.625 C 60.6875 -70.191406 45.933594 -61.457031 36.605469 -52.414062 C 34.132812 -50.078125 32.898438 -47.863281 32.898438 -45.773438 C 32.898438 -44.960938 33.214844 -44.359375 33.847656 -43.96875 C 34.640625 -43.472656 35.894531 -43.226562 37.617188 -43.226562 C 41.195312 -43.226562 49.789062 -47.238281 63.398438 -55.257812 L 72.421875 -60.585938 C 86.570312 -69.089844 98.453125 -73.34375 108.070312 -73.34375 C 116.527344 -73.34375 122.144531 -69.601562 124.921875 -62.117188 L 124.929688 -62.09375 C 125.585938 -60.199219 126.207031 -58.28125 126.789062 -56.347656 C 127.363281 -54.449219 127.933594 -52.753906 128.503906 -51.253906 C 129.132812 -49.546875 129.71875 -48.28125 130.261719 -47.464844 C 130.496094 -47.109375 130.707031 -46.855469 130.902344 -46.703125 C 130.964844 -46.65625 131.015625 -46.621094 131.058594 -46.601562 L 131.0625 -46.597656 C 131.9375 -46.597656 133.277344 -47.082031 135.082031 -48.050781 C 137.003906 -49.082031 139.125 -50.402344 141.449219 -52.011719 C 143.789062 -53.632812 146.222656 -55.414062 148.746094 -57.363281 L 161.886719 -67.894531 C 173.738281 -77.761719 182.726562 -82.691406 188.847656 -82.691406 Z M 188.847656 -80.605469 C 183.230469 -80.605469 174.675781 -75.824219 163.191406 -66.265625 L 150.019531 -55.707031 C 147.46875 -53.742188 145.007812 -51.9375 142.636719 -50.296875 C 140.25 -48.640625 138.0625 -47.28125 136.070312 -46.210938 C 133.957031 -45.078125 132.289062 -44.511719 131.0625 -44.511719 C 130.164062 -44.511719 129.316406 -45.109375 128.523438 -46.308594 C 127.886719 -47.265625 127.230469 -48.664062 126.554688 -50.511719 C 125.964844 -52.054688 125.378906 -53.800781 124.792969 -55.742188 C 124.214844 -57.652344 123.605469 -59.539062 122.957031 -61.414062 L 123.941406 -61.753906 L 122.964844 -61.390625 C 120.523438 -67.96875 115.558594 -71.253906 108.070312 -71.253906 C 98.839844 -71.253906 87.3125 -67.101562 73.484375 -58.789062 L 64.457031 -53.460938 C 50.523438 -45.246094 41.578125 -41.140625 37.617188 -41.140625 C 35.496094 -41.140625 33.875 -41.492188 32.746094 -42.195312 C 31.457031 -42.996094 30.8125 -44.1875 30.8125 -45.773438 C 30.8125 -48.464844 32.257812 -51.175781 35.152344 -53.914062 C 44.667969 -63.136719 59.632812 -72.015625 80.042969 -80.542969 L 93.738281 -86.414062 C 97.414062 -88.007812 99.8125 -89.53125 100.9375 -90.984375 C 102.023438 -92.390625 102.566406 -94.570312 102.566406 -97.523438 C 102.566406 -99.550781 102.082031 -101.042969 101.113281 -101.996094 C 100.136719 -102.957031 98.613281 -103.4375 96.542969 -103.4375 C 82.753906 -103.4375 64.613281 -99.21875 42.117188 -90.785156 C 18.335938 -81.777344 0.953125 -71.886719 -10.03125 -61.117188 C -17.578125 -53.710938 -21.351562 -45.296875 -21.351562 -35.878906 C -21.351562 -26.28125 -18.175781 -17.847656 -11.820312 -10.574219 C -5.214844 -2.917969 3.035156 0.914062 12.9375 0.914062 C 20.734375 0.914062 32.519531 -3.390625 48.300781 -11.996094 L 61.671875 -19.605469 L 62.1875 -18.699219 L 61.640625 -19.589844 L 85.984375 -34.558594 L 88.960938 -23.761719 C 91.085938 -16.042969 93.921875 -10.480469 97.476562 -7.066406 C 101.652344 -3.160156 108.6875 -3.050781 118.574219 -6.738281 C 135.03125 -12.917969 152.589844 -25.339844 171.253906 -44.003906 L 177.449219 -50.308594 L 178.195312 -49.578125 L 177.410156 -50.265625 C 186.660156 -60.796875 191.285156 -69.300781 191.285156 -75.777344 C 191.285156 -78.996094 190.472656 -80.605469 188.847656 -80.605469 Z M 188.847656 -80.605469 "/></g></g></g></g></g></svg>