<svg xmlns="http://www.w3.org/2000/svg" xmlns:xlink="http://www.w3.org/1999/xlink" width="1000" zoomAndPan="magnify" viewBox="0 0 750 225" height="300" preserveAspectRatio="xMidYMid meet" version="1.0"><defs><g/><clipPath id="e1d27fb99b"><path d="M 456.550781 107 L 600 107 L 600 205.632812 L 456.550781 205.632812 Z M 456.550781 107 " clip-rule="nonzero"/></clipPath><clipPath id="b41e1537b6"><path d="M 599 107 L 742 107 L 742 205.632812 L 599 205.632812 Z M 599 107 " clip-rule="nonzero"/></clipPath><clipPath id="0cf65296e1"><path d="M 602 48.882812 L 713 48.882812 L 713 108 L 602 108 Z M 602 48.882812 " clip-rule="nonzero"/></clipPath><clipPath id="5d0b48e486"><path d="M 486 48.882812 L 596 48.882812 L 596 108 L 486 108 Z M 486 48.882812 " clip-rule="nonzero"/></clipPath><clipPath id="d5900580d7"><rect x="0" width="456" y="0" height="225"/></clipPath></defs><path fill="#1800ad" d="M 737.300781 97.121094 C 738.769531 91.867188 742 81.382812 742 81.382812 C 619.542969 71.0625 599.292969 126.632812 599.292969 126.632812 C 627.707031 90.183594 715.925781 95.300781 737.300781 97.121094 " fill-opacity="1" fill-rule="nonzero"/><path fill="#2563eb" d="M 461.753906 95 C 460.363281 89.726562 457.296875 79.191406 457.296875 79.191406 C 579.898438 70.757812 599.292969 126.632812 599.292969 126.632812 C 571.441406 89.75 483.152344 93.507812 461.753906 95 " fill-opacity="1" fill-rule="nonzero"/><g clip-path="url(#e1d27fb99b)"><path fill="#2563eb" d="M 456.582031 109.59375 L 485.078125 178.726562 C 530.851562 184.277344 572.378906 171.363281 599.292969 205.886719 L 599.292969 138.65625 C 566.867188 97.066406 456.582031 109.59375 456.582031 109.59375 " fill-opacity="1" fill-rule="nonzero"/></g><g clip-path="url(#b41e1537b6)"><path fill="#1800ad" d="M 742 109.59375 L 713.503906 178.726562 C 667.730469 184.277344 626.203125 171.363281 599.292969 205.886719 L 599.292969 138.65625 C 631.714844 97.066406 742 109.59375 742 109.59375 " fill-opacity="1" fill-rule="nonzero"/></g><g clip-path="url(#0cf65296e1)"><path fill="#1800ad" d="M 712.410156 48.886719 L 708.503906 65.355469 C 672.261719 68.914062 620.679688 78.980469 602.722656 107.359375 C 602.722656 107.359375 614.808594 59.195312 712.410156 48.886719 " fill-opacity="1" fill-rule="nonzero"/></g><g clip-path="url(#5d0b48e486)"><path fill="#2563eb" d="M 486.175781 48.886719 L 490.082031 65.355469 C 526.324219 68.914062 577.90625 78.980469 595.863281 107.359375 C 595.863281 107.359375 583.773438 59.195312 486.175781 48.886719 " fill-opacity="1" fill-rule="nonzero"/></g><g transform="matrix(1, 0, 0, 1, 0, -0.000000000000008531)"><g clip-path="url(#d5900580d7)"><g fill="#1800ad" fill-opacity="1"><g transform="translate(-4.116583, 195.986097)"><g><path d="M 11.4375 -10.171875 L 11.4375 -148.53125 C 11.4375 -151.488281 12.953125 -153.882812 15.984375 -155.71875 C 19.023438 -157.5625 22.945312 -158.484375 27.75 -158.484375 C 32.414062 -158.484375 36.335938 -157.5625 39.515625 -155.71875 C 42.691406 -153.882812 44.28125 -151.488281 44.28125 -148.53125 L 44.28125 -10.171875 C 44.28125 -7.628906 42.65625 -5.296875 39.40625 -3.171875 C 36.15625 -1.054688 32.269531 0 27.75 0 C 23.09375 0 19.207031 -1.019531 16.09375 -3.0625 C 12.988281 -5.113281 11.4375 -7.484375 11.4375 -10.171875 Z M 11.4375 -10.171875 "/></g></g></g><g fill="#1800ad" fill-opacity="1"><g transform="translate(51.608393, 195.986097)"><g><path d="M 5.71875 -42.796875 L 5.71875 -58.265625 C 5.71875 -70.273438 10.484375 -80.585938 20.015625 -89.203125 C 29.554688 -97.816406 41.035156 -102.125 54.453125 -102.125 C 67.023438 -102.125 77.757812 -98.34375 86.65625 -90.78125 C 95.550781 -83.226562 100 -73.59375 100 -61.875 C 100 -57.351562 99.429688 -53.675781 98.296875 -50.84375 C 97.171875 -48.019531 95.476562 -46.039062 93.21875 -44.90625 C 90.957031 -43.78125 88.875 -43.039062 86.96875 -42.6875 C 85.0625 -42.332031 82.554688 -42.15625 79.453125 -42.15625 L 38.5625 -42.15625 L 38.5625 -40.890625 C 38.5625 -35.660156 40.535156 -31.457031 44.484375 -28.28125 C 48.441406 -25.101562 53.671875 -23.515625 60.171875 -23.515625 C 65.117188 -23.515625 70.3125 -24.820312 75.75 -27.4375 C 81.1875 -30.050781 84.820312 -31.359375 86.65625 -31.359375 C 90.1875 -31.359375 93.082031 -29.695312 95.34375 -26.375 C 97.601562 -23.0625 98.734375 -19.921875 98.734375 -16.953125 C 98.734375 -12.566406 94.953125 -8.289062 87.390625 -4.125 C 79.835938 0.0390625 70.484375 2.125 59.328125 2.125 C 43.503906 2.125 30.613281 -2.003906 20.65625 -10.265625 C 10.695312 -18.535156 5.71875 -29.378906 5.71875 -42.796875 Z M 38.5625 -60.59375 L 64.828125 -60.59375 C 67.796875 -60.59375 69.28125 -62.289062 69.28125 -65.6875 C 69.28125 -69.632812 67.757812 -72.738281 64.71875 -75 C 61.6875 -77.257812 58.050781 -78.390625 53.8125 -78.390625 C 49.71875 -78.390625 46.148438 -77.257812 43.109375 -75 C 40.078125 -72.738281 38.5625 -69.632812 38.5625 -65.6875 Z M 38.5625 -60.59375 "/></g></g></g><g fill="#1800ad" fill-opacity="1"><g transform="translate(156.701878, 195.986097)"><g><path d="M 9.53125 -10.171875 L 9.53125 -90.890625 C 9.53125 -93.859375 11.046875 -96.257812 14.078125 -98.09375 C 17.117188 -99.9375 20.972656 -100.859375 25.640625 -100.859375 C 29.734375 -100.859375 33.191406 -99.9375 36.015625 -98.09375 C 38.835938 -96.257812 40.25 -93.859375 40.25 -90.890625 L 40.25 -83.0625 C 42.507812 -88.144531 46.003906 -92.59375 50.734375 -96.40625 C 55.472656 -100.21875 60.382812 -102.125 65.46875 -102.125 L 71.609375 -102.125 C 74.722656 -102.125 77.441406 -100.710938 79.765625 -97.890625 C 82.097656 -95.066406 83.265625 -91.742188 83.265625 -87.921875 C 83.265625 -83.972656 82.097656 -80.582031 79.765625 -77.75 C 77.441406 -74.925781 74.722656 -73.515625 71.609375 -73.515625 L 65.46875 -73.515625 C 59.394531 -73.515625 54.023438 -70.582031 49.359375 -64.71875 C 44.703125 -58.863281 42.375 -51.273438 42.375 -41.953125 L 42.375 -10.171875 C 42.375 -7.628906 40.710938 -5.296875 37.390625 -3.171875 C 34.078125 -1.054688 30.160156 0 25.640625 0 C 21.117188 0 17.300781 -1.019531 14.1875 -3.0625 C 11.082031 -5.113281 9.53125 -7.484375 9.53125 -10.171875 Z M 9.53125 -10.171875 "/></g></g></g><g fill="#1800ad" fill-opacity="1"><g transform="translate(240.183412, 195.986097)"><g><path d="M 9.53125 -10.171875 L 9.53125 -90.890625 C 9.53125 -93.859375 11.046875 -96.257812 14.078125 -98.09375 C 17.117188 -99.9375 21.039062 -100.859375 25.84375 -100.859375 C 29.800781 -100.859375 33.191406 -99.9375 36.015625 -98.09375 C 38.835938 -96.257812 40.25 -93.859375 40.25 -90.890625 L 40.25 -86.015625 C 42.507812 -90.535156 46.144531 -94.347656 51.15625 -97.453125 C 56.175781 -100.566406 62.003906 -102.125 68.640625 -102.125 C 78.390625 -102.125 86.832031 -97.742188 93.96875 -88.984375 C 101.101562 -80.222656 104.671875 -69.769531 104.671875 -57.625 L 104.671875 -10.171875 C 104.671875 -6.921875 103.046875 -4.410156 99.796875 -2.640625 C 96.546875 -0.878906 92.660156 0 88.140625 0 C 83.898438 0 80.117188 -0.914062 76.796875 -2.75 C 73.484375 -4.59375 71.828125 -7.066406 71.828125 -10.171875 L 71.828125 -57.625 C 71.828125 -61.726562 70.304688 -65.398438 67.265625 -68.640625 C 64.234375 -71.890625 60.671875 -73.515625 56.578125 -73.515625 C 52.898438 -73.515625 49.613281 -72.066406 46.71875 -69.171875 C 43.820312 -66.273438 42.375 -62.425781 42.375 -57.625 L 42.375 -10.171875 C 42.375 -7.628906 40.710938 -5.296875 37.390625 -3.171875 C 34.078125 -1.054688 30.226562 0 25.84375 0 C 21.1875 0 17.300781 -1.019531 14.1875 -3.0625 C 11.082031 -5.113281 9.53125 -7.484375 9.53125 -10.171875 Z M 9.53125 -10.171875 "/></g></g></g><g fill="#1800ad" fill-opacity="1"><g transform="translate(353.328472, 195.986097)"><g><path d="M 3.8125 -26.0625 C 3.8125 -37.78125 8.082031 -46.039062 16.625 -50.84375 C 25.175781 -55.644531 37.429688 -58.046875 53.390625 -58.046875 L 61.015625 -58.046875 L 61.015625 -60.171875 C 61.015625 -64.410156 59.742188 -68.082031 57.203125 -71.1875 C 54.660156 -74.289062 50.632812 -75.84375 45.125 -75.84375 C 38.34375 -75.84375 32.765625 -74.675781 28.390625 -72.34375 C 24.015625 -70.019531 21.332031 -68.859375 20.34375 -68.859375 C 16.945312 -68.859375 14.257812 -70.515625 12.28125 -73.828125 C 10.3125 -77.148438 9.328125 -80.929688 9.328125 -85.171875 C 9.328125 -89.835938 13.242188 -93.828125 21.078125 -97.140625 C 28.921875 -100.460938 37.078125 -102.125 45.546875 -102.125 C 61.796875 -102.125 73.910156 -98.164062 81.890625 -90.25 C 89.867188 -82.34375 93.859375 -72.457031 93.859375 -60.59375 L 93.859375 -10.171875 C 93.859375 -7.347656 92.335938 -4.945312 89.296875 -2.96875 C 86.265625 -0.988281 82.421875 0 77.765625 0 C 73.660156 0 70.195312 -0.988281 67.375 -2.96875 C 64.550781 -4.945312 63.140625 -7.347656 63.140625 -10.171875 L 63.140625 -14.828125 C 53.390625 -3.523438 42.65625 2.125 30.9375 2.125 C 23.164062 2.125 16.703125 -0.273438 11.546875 -5.078125 C 6.390625 -9.878906 3.8125 -16.875 3.8125 -26.0625 Z M 36.859375 -30.71875 C 36.859375 -24.789062 39.613281 -21.828125 45.125 -21.828125 C 48.65625 -21.828125 52.1875 -23.800781 55.71875 -27.75 C 59.25 -31.707031 61.015625 -36.226562 61.015625 -41.3125 L 61.015625 -42.15625 L 60.171875 -42.15625 C 55.515625 -42.15625 51.664062 -41.941406 48.625 -41.515625 C 45.582031 -41.097656 42.859375 -40.003906 40.453125 -38.234375 C 38.054688 -36.472656 36.859375 -33.96875 36.859375 -30.71875 Z M 36.859375 -30.71875 "/></g></g></g></g></g></svg>